<?xml version="1.0" standalone="no"?><!DOCTYPE svg PUBLIC "-//W3C//DTD SVG 1.1//EN" "http://www.w3.org/Graphics/SVG/1.1/DTD/svg11.dtd"><svg width="24px" height="24px" viewBox="0 0 512 512" version="1.1" xmlns="http://www.w3.org/2000/svg" xmlns:xlink="http://www.w3.org/1999/xlink" xml:space="preserve" style="fill-rule:evenodd;clip-rule:evenodd;stroke-linecap:round;stroke-linejoin:round;stroke-miterlimit:1.41421;"><circle cx="256" cy="256" r="256" style="fill:url(#_Radial1);"/><path d="M212.855,116.313c-1.172,1.652 -2.345,3.304 -3.518,4.955c-2.582,3.637 2.085,0.844 4.523,6.307c1.697,3.802 -0.374,5.978 0.503,9.91c0.943,4.228 4.318,7.565 5.026,12.163c0.248,1.61 -4.29,6.802 -5.529,8.108c-4.538,4.786 -1.939,12.121 -3.015,18.019c-1.086,3.894 5.026,7.935 5.026,11.712c0,3.01 4.285,4.054 7.036,4.054c5.313,0 5.677,-0.559 7.036,-3.604c1.051,-2.355 1.463,-7.634 4.021,-9.009c1.79,-0.963 8.041,-4.6 8.041,-6.307c0,-3.407 5.85,-6.595 8.543,-9.009c3.03,-2.715 7.171,-4.79 10.555,-6.306c4.957,-2.222 6.533,-3.598 6.533,-8.559c0,-3.252 -5.286,-7.845 -4.523,-11.262c0.814,-3.65 -0.929,-9.692 -3.016,-12.162c-3.447,-4.082 -3.713,-5.661 -4.523,-10.361c-0.649,-3.773 -2.522,-4.951 -6.533,-3.153c-4.612,2.066 -7.45,3.153 -12.565,3.153c-3.034,0 -6.259,-0.451 -9.549,-0.451c-5.262,2.275 -8.318,1.619 -14.072,1.802l0,0ZM143.5,96.042c3.735,6.696 -1.799,12.866 4.02,19.821c5.762,6.885 8.989,12.639 19.098,8.108c10.114,-4.532 9.708,8.417 5.026,12.613c-1.933,1.733 -15.985,0 -19.098,0c-9.612,0 -13.626,-0.233 -19.098,6.307c-5.085,6.077 -11.703,7.85 -8.041,14.415c2.592,4.646 -0.049,14.502 -2.01,18.018c-3.283,5.884 -4.34,12.042 -1.005,18.019c3.181,5.702 14.072,10.339 14.072,0.901c0,-8.892 5.811,-8.813 12.062,-14.415c4.033,-3.615 -0.315,-14.133 5.025,-18.92c6.092,-5.46 9.624,9.143 11.057,11.712c4.008,7.185 5.414,10.847 12.062,15.316c4.97,3.342 6.887,14.282 11.056,18.019c6.311,5.656 -5.307,14.525 -6.03,17.118c-2.202,7.892 -9.959,6.863 -18.093,5.405c-10.675,-1.913 -10.677,-1.354 -17.088,6.307c-3.51,4.195 7.443,13.696 -5.026,8.108c-8.072,-3.617 -12.038,4.494 -18.092,7.208c-6.629,2.97 -14.619,-4.346 -17.088,4.504c-2.115,7.582 -1.89,13.579 -12.062,8.109c-7.073,-3.804 -11.802,5.841 -15.077,11.712c-4.228,7.579 2.157,12.097 -7.036,16.216c-11.073,4.963 -2.01,-7.107 -2.01,-10.811c0,-5.499 -8.335,-14.039 -11.057,-18.919c-3.987,-7.148 -7.581,-8.906 -16.082,-10.811c-9.901,-2.219 -13.675,3.792 -17.088,9.91c-3.231,5.792 0.644,12.106 -1.005,18.018c-2.092,7.5 6.932,11.759 13.067,9.01c8.306,-3.723 13.863,3.791 8.041,9.009c-6.472,5.802 -7.895,6.181 -1.005,14.415c8.092,9.671 5.026,2.194 5.026,14.415c0,3.604 0,7.207 0,10.811c0,3.516 -0.524,7.273 5.151,10.361c6.888,3.747 10.222,6.039 17.527,4.73c6.243,-1.119 10.428,1.103 15.517,2.928c7.204,2.582 10.944,10.21 17.088,13.514c7.858,4.226 14.025,7.01 22.113,9.91c6.182,2.216 14.241,5.307 18.093,9.91c4.504,5.383 10.614,10.739 16.083,14.415c6.411,4.31 14.181,5.504 20.103,10.811c5.519,4.947 10.937,5.264 17.087,12.613c5.778,6.905 13.83,7.55 21.108,10.811c6.34,2.842 11.027,-9.036 19.098,-1.801c4.206,3.769 10.981,8.737 12.062,12.613c2.02,7.242 -8.603,9.91 -14.072,9.91c-4.284,0 -0.583,0.784 -2.01,2.703c-5.403,0 -3.025,10.814 -8.042,12.613c-2.406,0.862 -5.858,1.313 -8.041,1.802l-5.026,0c-1.34,-0.301 -2.68,-0.601 -4.02,-0.901c-4.333,-0.971 -15.834,6.195 -20.103,8.108c-5.386,2.414 -14.624,1.43 -20.229,3.942c-23.218,-6.58 -47.481,-16.222 -68.35,-27.254c-0.722,-0.451 2.273,-16.984 0.125,-20.834c-3.34,-5.989 -9.481,-12.034 -16.082,-13.514c-8.872,-1.988 -14.259,-11.482 -16.082,-18.018c-1.985,-7.114 -4.707,-13.371 -11.057,-16.217c-10.663,-4.779 -0.959,-11.282 4.021,-13.514c7.113,-3.188 9.64,-11.791 5.025,-16.217c-7.632,-7.318 -10.748,-5.042 -17.087,-7.883c-5.202,-2.331 -9.513,-4.601 -11.057,-10.135c-1.692,-6.066 -5.301,-11.8 -7.036,-18.019c-1.736,-6.223 -3.354,-12.023 -5.026,-18.019c-0.775,-2.78 -10.581,-13.245 -13.067,-16.216c-5.522,-19.145 -11.003,-32.411 -10.994,-36.207c0.03,-12.197 4.696,-7.686 4.524,-13.345c-0.305,-10.013 0.059,-14.045 2.324,-20.608c1.361,-3.944 3.716,-6.162 2.136,-11.825c-1.928,-6.913 -0.773,-13.029 2.387,-18.694c3.829,-6.864 5.277,-7.084 5.277,-15.485c0,-9.503 9.088,-17.474 18.47,-21.679c8.253,-3.699 14.365,-10.041 22.113,-13.514c6.837,-3.064 17.335,-6.749 21.108,-13.514c3.398,-6.091 6.719,-12.044 10.052,-18.018c1.15,-2.063 -0.58,-4.134 0.503,-6.025c5.313,-9.288 4.413,-8.288 15.579,-14.697c4.981,-4.464 13.067,-11.524 13.067,-18.018c0,-7.279 -3.126,-11.613 3.016,-17.118c3.012,-2.701 16.03,-0.901 20.103,-0.901c9.141,0 12.28,0.912 20.103,3.716c10.857,3.893 0.261,10.352 -4.775,14.866c-12.864,8.071 -16.706,11.375 -15.328,28.266l0,0ZM178.68,65.411c-2.057,-6.234 -1.134,-12.359 8.041,-14.415c7.385,-1.655 13.039,0.682 20.103,-0.901c7.955,-1.783 14.633,-3.73 22.114,-5.406c7.655,-1.715 11.199,7.208 19.098,7.208c8.261,0 12.6,-3.725 20.103,-5.406c6.824,-1.529 13.589,5.477 15.077,10.811c2.402,8.612 5.097,10.876 12.062,17.118c6.025,5.401 -4.428,11.371 -6.031,17.118c-1.879,6.737 -4.49,16.336 -13.067,14.415c-8.715,-1.953 -9.788,7.443 -20.103,-1.802c-3.294,-2.953 -11.625,4.504 -18.093,4.504c-6.882,0 -13.377,-6.028 -19.098,-0.901c-5.247,4.704 -9.082,6.291 -17.087,2.703c-4.596,-2.059 -15.148,-5.196 -20.103,-6.306c-7.987,-1.79 -14.048,-2.658 -18.093,-9.911c-3.544,-6.352 4.8,-12.41 9.046,-16.216c4.301,-3.855 3.727,-7.449 6.031,-12.613l0,0ZM169.16,39.124c-0.755,0.001 -2.187,-0.459 -2.958,-3.225c-1.987,-7.123 5.471,-6.307 13.067,-6.307c8.768,0 15.327,-5.407 13.067,-8.108c-3.941,-4.71 5.491,-16.008 13.067,-12.613c14.436,6.469 -11.114,10.442 -10.052,11.712c7.082,8.463 10.582,-1.36 18.093,-3.604c2.01,-0.601 3.975,-1.341 6.031,-1.802c7.975,-1.787 12.405,1.802 20.103,1.802c10.049,0 9.319,-7.536 18.093,-6.757c37.632,-0.51 68.737,7.155 102.525,20.721c28.058,12.616 53.396,27.801 74.13,48.651c23.918,24.05 28.389,31.795 47.242,60.362c-3.852,7.637 14.568,38.844 16.837,53.38c-2.963,5.311 7.158,43.031 3.015,46.173c-9.407,-2.457 -10.534,-9.597 -16.512,-13.04c-5.705,-3.284 -12.233,-9.433 -18.166,-8.582c-1.559,5.934 8.211,14.491 14.073,17.117c12.328,3.344 11.589,6.079 24.123,10.812c5.816,2.195 5.026,12.204 5.026,18.018c0,6.13 -0.306,12.171 -1.005,18.019c-4.055,33.887 -14.08,58.599 -31.16,86.489c-17.472,26.054 -20.359,28.136 -42.216,51.804c0.318,-8.168 -3.213,-4.377 1.507,-15.992c2.111,-5.194 4.974,-9.499 6.534,-15.09c2.443,-8.759 -1.96,-9.438 -9.046,-12.613c-5.095,-2.284 5.094,-17.599 0,-15.316c-6.25,2.801 -11.965,3.109 -19.098,6.306c-6.308,2.827 -11.534,10.897 -16.083,11.712c-7.699,1.381 -12.078,5.769 -20.103,7.208c-3.922,0.703 -15.241,5.258 -19.098,1.802c-4.495,-4.029 -15.249,-0.309 -18.092,-5.406c-2.151,-3.855 -15.652,-12.229 -15.078,-15.316c0.671,-3.606 6.782,-14.871 5.026,-18.018c-3.998,-7.168 -6.497,-7.338 -4.021,-16.217c1.553,-5.565 4.004,-14.4 9.047,-18.92c5.131,-4.599 12.127,-9.674 10.051,-17.117c-1.597,-5.726 2.835,-13.19 6.031,-18.92c3.615,-6.48 12.294,-7.416 18.093,-12.613c5.572,-4.994 10.623,-8.299 16.082,-14.415c7.383,-8.272 8.441,-9.552 16.083,-2.703c3.758,3.369 13.633,5.602 20.103,2.703c10.068,-4.512 6.253,-5.804 11.057,-14.415c3.951,-7.084 9.847,-7.263 15.077,-13.514c4.792,-5.727 7.036,-11.76 7.036,-18.919c0,-4.988 -5.262,-18.973 -8.041,-9.01c-0.479,1.716 -11.057,18.975 -11.057,11.712c0,-10.932 -2.91,2.798 -8.041,-1.801c-5.073,-4.547 -1.829,-10.767 1.005,-17.118c3.01,-6.744 14.027,-11.873 12.062,-18.92c-2.253,-8.075 -14.447,-10.135 -22.365,-10.135c-7.786,0 -5.95,16.958 -4.272,22.974c1.336,4.787 10.587,10.527 7.539,15.991c-1.286,2.305 -5.722,3.925 -5.416,8.122c0.266,3.649 7.061,2.381 5.416,8.771c-5.104,1.809 -7.243,2.642 -9.605,0.04c-3.12,-3.438 -3.414,-5.355 -7.734,-6.347c-10.233,-2.35 -6.663,-1.604 -14.826,0.225c-12.433,2.786 -1.004,7.208 6.031,7.208c5.407,0 19.103,8.389 8.292,10.811c-7.4,1.658 -18.552,-7.433 -24.626,-7.433c-6.04,0 -14.054,7.812 -11.81,12.839c4.708,10.551 -0.025,3.916 -3.016,14.64c-1.097,3.932 3.413,14.734 0,17.793c-7.49,6.713 -7.682,4.505 -18.093,4.505c-10.922,0 -9.023,-2.661 -13.067,-9.911c-3.789,-6.792 -6.138,-11.414 1.006,-16.216c5.752,-3.867 10.585,-2.998 14.072,-10.811c4.929,-11.046 -2.468,-7.618 -8.041,-12.614c-5.88,-5.27 3.108,-8.44 5.025,-15.315c1.2,-4.3 0.592,-14.946 4.021,-18.019c5.547,-4.972 9.516,-7.628 15.077,-12.613c4.671,-4.187 7.786,-13.178 -1.005,-17.118c-7.83,-3.509 -12.577,-5.429 -17.088,-13.514c-6.405,-11.482 -9.352,-2.007 -5.025,0.901c6.98,4.693 10.386,9.609 14.072,16.217c2.341,4.197 7.355,15.316 -3.016,15.316c-9.367,0 -9.149,-0.53 -18.846,-2.703c-8.1,-1.815 -9.549,-8.79 -9.549,-16.217c0,-5.307 -3.61,-12.248 -5.026,-17.568c-1.608,-6.042 -7.426,-4.457 -3.518,-17.343c4.421,-7.925 4.774,-9.634 10.805,-8.333l0,0c0.419,0 0.838,0 1.257,0c1.435,0 2.645,0.901 4.272,0.901c0.236,0 1.35,0.752 2.01,0.9c12.842,6.129 13.265,9.878 16.836,5.181c4.056,-5.335 -6.99,-9.337 -9.8,-22.523c-1.424,-6.682 -4.011,-5.075 -5.026,-6.307c-5.067,-6.156 -0.916,-2.153 -3.518,-8.784c-0.711,-1.814 -2.733,-2.966 -4.02,-4.505c-5.782,-6.909 -11.54,-4.604 -18.093,-9.009c-9.882,-6.643 -19.498,-3.332 -20.103,-3.604c-10.139,-4.544 -6.564,-7.262 -11.057,-15.316c-3.634,-6.514 -14.416,-6.021 -16.082,-9.009c-2.537,-4.547 3.089,-11.295 -8.041,-6.306c-2.785,1.248 -16.128,4.934 -19.098,3.603c-6.713,-3.008 -13.31,-6.083 -22.114,-4.504c-6.273,1.124 -13.012,5.405 -19.097,5.405c-8.21,0 -13.185,0.784 -20.104,4.505c-2.306,1.24 -21.608,4.165 -14.072,-0.901c7.665,-5.153 8.183,-3.982 6.979,-3.982c0.564,0 0.75,-0.257 0,0Z" style="fill:url(#_Radial2);"/><path d="M256,512l-0.828,-0.001l-0.827,-0.004l-0.826,-0.007l-0.826,-0.009l-0.825,-0.012l-0.824,-0.014l-0.824,-0.017l-0.823,-0.02l-0.823,-0.022l-0.822,-0.025l-0.821,-0.027l-0.821,-0.03l-0.819,-0.032l-0.82,-0.035l-0.818,-0.038l-0.818,-0.04l-0.818,-0.043l-0.816,-0.046l-0.816,-0.047l-0.816,-0.051l-0.814,-0.053l-0.814,-0.055l-0.813,-0.058l-0.813,-0.061l-0.811,-0.063l-0.812,-0.066l-0.81,-0.068l-0.81,-0.071l-0.808,-0.073l-0.809,-0.076l-0.807,-0.078l-0.807,-0.081l-0.806,-0.083l-0.805,-0.086l-0.805,-0.088l-0.804,-0.091l-0.803,-0.093l-0.802,-0.096l-0.801,-0.098l-0.801,-0.1l-0.8,-0.103l-0.799,-0.106l-0.799,-0.108l-0.798,-0.111l-0.796,-0.112l-0.797,-0.116l-0.795,-0.118l-0.794,-0.12l-0.794,-0.123l-0.793,-0.125l-0.792,-0.127l-0.792,-0.13l-0.79,-0.133l-0.79,-0.135l-0.789,-0.137l-0.788,-0.139l-0.787,-0.143l-0.786,-0.144l-0.786,-0.147l-0.784,-0.149l-0.784,-0.152l-0.783,-0.154l-0.782,-0.156l-0.782,-0.159l-0.78,-0.161l-0.78,-0.164l-0.778,-0.165l-0.778,-0.169l-0.777,-0.17l-0.776,-0.173l-0.776,-0.176l-0.774,-0.177l-0.773,-0.18l-0.773,-0.183l-0.771,-0.184l-0.771,-0.187l-0.77,-0.19l-0.769,-0.191l-0.768,-0.194l-0.767,-0.196l-0.766,-0.199l-0.765,-0.201l-0.764,-0.203l-0.764,-0.206l-0.762,-0.207l-0.762,-0.21l-0.76,-0.213l-0.76,-0.214l-0.758,-0.217l-0.758,-0.22l-0.757,-0.221l-0.755,-0.224l-0.755,-0.226l-0.754,-0.228l-0.753,-0.231l-0.751,-0.232l-0.751,-0.235l-0.75,-0.238l-0.749,-0.239l-0.748,-0.242l-0.747,-0.244l-0.745,-0.246l-0.745,-0.248l-0.744,-0.251l-0.743,-0.253l-0.742,-0.255l-0.74,-0.257l-0.74,-0.26l-0.739,-0.261l-0.737,-0.264l-0.737,-0.266l-0.735,-0.269l-0.735,-0.27l-0.733,-0.273l-0.733,-0.274l-0.731,-0.277l-0.73,-0.28l-0.73,-0.281l-0.728,-0.283l-0.727,-0.286l-0.726,-0.288l-0.725,-0.29l-0.723,-0.292l-0.723,-0.294l-0.722,-0.296l-0.72,-0.299l-0.72,-0.3l-0.718,-0.303l-0.717,-0.305l-0.716,-0.307l-0.715,-0.309l-0.714,-0.311l-0.712,-0.313l-0.712,-0.316l-0.71,-0.317l-0.71,-0.32l-0.708,-0.322l-0.707,-0.323l-0.706,-0.326l-0.704,-0.328l-0.704,-0.33l-0.702,-0.332l-0.701,-0.334l-0.7,-0.337l-0.699,-0.338l-0.698,-0.34l-0.696,-0.342l-0.696,-0.345l-0.694,-0.346l-0.693,-0.349l-0.691,-0.35l-0.691,-0.353l-0.689,-0.354l-0.688,-0.357l-0.687,-0.359l-0.686,-0.36l-0.684,-0.363l-0.683,-0.365l-0.682,-0.366l-0.681,-0.369l-0.679,-0.371l-0.679,-0.372l-0.677,-0.375l-0.675,-0.376l-0.675,-0.379l-0.673,-0.381l-0.672,-0.382l-0.671,-0.385l-0.669,-0.386l-0.668,-0.388l-0.667,-0.391l-0.666,-0.392l-0.664,-0.395l-0.663,-0.396l-0.662,-0.398l-0.66,-0.4l-0.659,-0.402l-0.658,-0.404l-0.657,-0.406l-0.655,-0.408l-0.654,-0.409l-0.652,-0.412l-0.652,-0.414l-0.65,-0.415l-0.648,-0.417l-0.647,-0.42l-0.646,-0.421l-0.645,-0.423l-0.643,-0.425l-0.642,-0.427l-0.64,-0.428l-0.639,-0.431l-0.638,-0.432l-0.637,-0.434l-0.635,-0.437l-0.633,-0.438l-0.633,-0.439l-0.63,-0.442l-0.63,-0.444l-0.628,-0.445l-0.627,-0.447l-0.625,-0.449l-0.624,-0.451l-0.622,-0.453l-0.621,-0.454l-0.62,-0.457l-0.618,-0.458l-0.617,-0.46l-0.616,-0.462l-0.614,-0.463l-0.612,-0.466l-0.611,-0.467l-0.61,-0.469l-0.608,-0.471l-0.607,-0.472l-0.605,-0.474l-0.604,-0.477l-0.602,-0.477l-0.601,-0.48l-0.6,-0.481l-0.598,-0.484l-0.596,-0.484l-0.595,-0.487l-0.593,-0.489l-0.592,-0.49l-0.591,-0.492l-0.589,-0.493l-0.588,-0.496l-0.586,-0.497l-0.584,-0.498l-0.583,-0.501l-0.581,-0.502l-0.58,-0.504l-0.579,-0.506l-0.577,-0.507l-0.575,-0.509l-0.574,-0.511l-0.572,-0.512l-0.571,-0.514l-0.569,-0.516l-0.568,-0.518l-0.566,-0.519l-0.564,-0.521l-0.563,-0.522l-0.562,-0.525l-0.559,-0.525l-0.559,-0.528l-0.556,-0.529l-0.555,-0.531l-0.554,-0.532l-0.552,-0.534l-0.55,-0.536l-0.548,-0.537l-0.548,-0.539l-0.545,-0.541l-0.544,-0.542l-0.542,-0.544l-0.541,-0.545l-0.539,-0.548l-0.537,-0.548l-0.536,-0.55l-0.534,-0.552l-0.532,-0.554l-0.531,-0.555l-0.529,-0.556l-0.528,-0.559l-0.525,-0.559l-0.525,-0.562l-0.522,-0.563l-0.521,-0.564l-0.519,-0.566l-0.518,-0.568l-0.516,-0.569l-0.514,-0.571l-0.512,-0.572l-0.511,-0.574l-0.509,-0.575l-0.507,-0.577l-0.506,-0.579l-0.504,-0.58l-0.502,-0.581l-0.501,-0.583l-0.498,-0.584l-0.497,-0.586l-0.496,-0.588l-0.493,-0.589l-0.492,-0.591l-0.49,-0.592l-0.489,-0.593l-0.487,-0.595l-0.484,-0.596l-0.484,-0.598l-0.481,-0.6l-0.48,-0.601l-0.477,-0.602l-0.477,-0.604l-0.474,-0.605l-0.472,-0.607l-0.471,-0.608l-0.469,-0.61l-0.467,-0.611l-0.466,-0.612l-0.463,-0.614l-0.462,-0.616l-0.46,-0.617l-0.458,-0.618l-0.457,-0.62l-0.454,-0.621l-0.453,-0.622l-0.451,-0.624l-0.449,-0.625l-0.447,-0.627l-0.445,-0.628l-0.444,-0.63l-0.442,-0.63l-0.439,-0.633l-0.438,-0.633l-0.437,-0.635l-0.434,-0.637l-0.432,-0.638l-0.431,-0.639l-0.428,-0.64l-0.427,-0.642l-0.425,-0.643l-0.423,-0.645l-0.421,-0.646l-0.42,-0.647l-0.417,-0.648l-0.415,-0.65l-0.414,-0.652l-0.412,-0.652l-0.409,-0.654l-0.408,-0.655l-0.406,-0.657l-0.404,-0.658l-0.402,-0.659l-0.4,-0.66l-0.398,-0.662l-0.396,-0.663l-0.395,-0.664l-0.392,-0.666l-0.391,-0.667l-0.388,-0.668l-0.386,-0.669l-0.385,-0.671l-0.382,-0.672l-0.381,-0.673l-0.379,-0.675l-0.376,-0.675l-0.375,-0.677l-0.372,-0.679l-0.371,-0.679l-0.369,-0.681l-0.366,-0.682l-0.365,-0.683l-0.363,-0.684l-0.36,-0.686l-0.359,-0.687l-0.357,-0.688l-0.354,-0.689l-0.353,-0.691l-0.35,-0.691l-0.349,-0.693l-0.346,-0.694l-0.345,-0.696l-0.342,-0.696l-0.34,-0.698l-0.338,-0.699l-0.337,-0.7l-0.334,-0.701l-0.332,-0.702l-0.33,-0.704l-0.328,-0.704l-0.326,-0.706l-0.323,-0.707l-0.322,-0.708l-0.32,-0.71l-0.317,-0.71l-0.316,-0.712l-0.313,-0.712l-0.311,-0.714l-0.309,-0.715l-0.307,-0.716l-0.305,-0.717l-0.303,-0.718l-0.3,-0.72l-0.299,-0.72l-0.296,-0.722l-0.294,-0.723l-0.292,-0.723l-0.29,-0.725l-0.288,-0.726l-0.286,-0.727l-0.283,-0.728l-0.281,-0.73l-0.28,-0.73l-0.277,-0.731l-0.274,-0.733l-0.273,-0.733l-0.27,-0.735l-0.269,-0.735l-0.266,-0.737l-0.264,-0.737l-0.261,-0.739l-0.26,-0.74l-0.257,-0.74l-0.255,-0.742l-0.253,-0.743l-0.251,-0.744l-0.248,-0.745l-0.246,-0.745l-0.244,-0.747l-0.242,-0.748l-0.239,-0.749l-0.238,-0.75l-0.235,-0.751l-0.232,-0.751l-0.231,-0.753l-0.228,-0.754l-0.226,-0.755l-0.224,-0.755l-0.221,-0.757l-0.22,-0.758l-0.217,-0.758l-0.214,-0.76l-0.213,-0.76l-0.21,-0.762l-0.207,-0.762l-0.206,-0.764l-0.203,-0.764l-0.201,-0.765l-0.199,-0.766l-0.196,-0.767l-0.194,-0.768l-0.191,-0.769l-0.19,-0.77l-0.187,-0.771l-0.184,-0.771l-0.183,-0.773l-0.18,-0.773l-0.177,-0.774l-0.176,-0.776l-0.173,-0.776l-0.17,-0.777l-0.169,-0.778l-0.165,-0.778l-0.164,-0.78l-0.161,-0.78l-0.159,-0.782l-0.156,-0.782l-0.154,-0.783l-0.152,-0.784l-0.149,-0.784l-0.147,-0.786l-0.144,-0.786l-0.143,-0.787l-0.139,-0.788l-0.137,-0.789l-0.135,-0.79l-0.133,-0.79l-0.13,-0.792l-0.127,-0.792l-0.125,-0.793l-0.123,-0.794l-0.12,-0.794l-0.118,-0.795l-0.116,-0.797l-0.112,-0.796l-0.111,-0.798l-0.108,-0.799l-0.106,-0.799l-0.103,-0.8l-0.1,-0.801l-0.098,-0.801l-0.096,-0.802l-0.093,-0.803l-0.091,-0.804l-0.088,-0.805l-0.086,-0.805l-0.083,-0.806l-0.081,-0.807l-0.078,-0.807l-0.076,-0.809l-0.073,-0.808l-0.071,-0.81l-0.068,-0.81l-0.066,-0.812l-0.063,-0.811l-0.061,-0.813l-0.058,-0.813l-0.055,-0.814l-0.053,-0.814l-0.051,-0.816l-0.047,-0.816l-0.046,-0.816l-0.043,-0.818l-0.04,-0.818l-0.038,-0.818l-0.035,-0.82l-0.032,-0.819l-0.03,-0.821l-0.027,-0.821l-0.025,-0.822l-0.022,-0.823l-0.02,-0.823l-0.017,-0.824l-0.014,-0.824l-0.012,-0.825l-0.009,-0.826l-0.007,-0.826l-0.004,-0.827l-0.001,-0.828l0.001,-0.828l0.004,-0.827l0.007,-0.826l0.009,-0.826l0.012,-0.825l0.014,-0.824l0.017,-0.824l0.02,-0.823l0.022,-0.823l0.025,-0.822l0.027,-0.821l0.03,-0.821l0.032,-0.819l0.035,-0.82l0.038,-0.818l0.04,-0.818l0.043,-0.818l0.046,-0.816l0.047,-0.816l0.051,-0.816l0.053,-0.814l0.055,-0.814l0.058,-0.813l0.061,-0.813l0.063,-0.811l0.066,-0.812l0.068,-0.81l0.071,-0.81l0.073,-0.808l0.076,-0.809l0.078,-0.807l0.081,-0.807l0.083,-0.806l0.086,-0.805l0.088,-0.805l0.091,-0.804l0.093,-0.803l0.096,-0.802l0.098,-0.801l0.1,-0.801l0.103,-0.8l0.106,-0.799l0.108,-0.799l0.111,-0.798l0.112,-0.796l0.116,-0.797l0.118,-0.795l0.12,-0.794l0.123,-0.794l0.125,-0.793l0.127,-0.792l0.13,-0.792l0.133,-0.79l0.135,-0.79l0.137,-0.789l0.139,-0.788l0.143,-0.787l0.144,-0.786l0.147,-0.786l0.149,-0.784l0.152,-0.784l0.154,-0.783l0.156,-0.782l0.159,-0.782l0.161,-0.78l0.164,-0.78l0.165,-0.778l0.169,-0.778l0.17,-0.777l0.173,-0.776l0.176,-0.776l0.177,-0.774l0.18,-0.773l0.183,-0.773l0.184,-0.771l0.187,-0.771l0.19,-0.77l0.191,-0.769l0.194,-0.768l0.196,-0.767l0.199,-0.766l0.201,-0.765l0.203,-0.764l0.206,-0.764l0.207,-0.762l0.21,-0.762l0.213,-0.76l0.214,-0.76l0.217,-0.758l0.22,-0.758l0.221,-0.757l0.224,-0.755l0.226,-0.755l0.228,-0.754l0.231,-0.753l0.232,-0.751l0.235,-0.751l0.238,-0.75l0.239,-0.749l0.242,-0.748l0.244,-0.747l0.246,-0.745l0.248,-0.745l0.251,-0.744l0.253,-0.743l0.255,-0.742l0.257,-0.74l0.26,-0.74l0.261,-0.739l0.264,-0.737l0.266,-0.737l0.269,-0.735l0.27,-0.735l0.273,-0.733l0.274,-0.733l0.277,-0.731l0.28,-0.73l0.281,-0.73l0.283,-0.728l0.286,-0.727l0.288,-0.726l0.29,-0.725l0.292,-0.723l0.294,-0.723l0.296,-0.722l0.299,-0.72l0.3,-0.72l0.303,-0.718l0.305,-0.717l0.307,-0.716l0.309,-0.715l0.311,-0.714l0.313,-0.712l0.316,-0.712l0.317,-0.71l0.32,-0.71l0.322,-0.708l0.323,-0.707l0.326,-0.706l0.328,-0.704l0.33,-0.704l0.332,-0.702l0.334,-0.701l0.337,-0.7l0.338,-0.699l0.34,-0.698l0.342,-0.696l0.345,-0.696l0.346,-0.694l0.349,-0.693l0.35,-0.691l0.353,-0.691l0.354,-0.689l0.357,-0.688l0.359,-0.687l0.36,-0.686l0.363,-0.684l0.365,-0.683l0.366,-0.682l0.369,-0.681l0.371,-0.679l0.372,-0.679l0.375,-0.677l0.376,-0.675l0.379,-0.675l0.381,-0.673l0.382,-0.672l0.385,-0.671l0.386,-0.669l0.388,-0.668l0.391,-0.667l0.392,-0.666l0.395,-0.664l0.396,-0.663l0.398,-0.662l0.4,-0.66l0.402,-0.659l0.404,-0.658l0.406,-0.657l0.408,-0.655l0.409,-0.654l0.412,-0.652l0.414,-0.652l0.415,-0.65l0.417,-0.648l0.42,-0.647l0.421,-0.646l0.423,-0.645l0.425,-0.643l0.427,-0.642l0.428,-0.64l0.431,-0.639l0.432,-0.638l0.434,-0.637l0.437,-0.635l0.438,-0.633l0.439,-0.633l0.442,-0.63l0.444,-0.63l0.445,-0.628l0.447,-0.627l0.449,-0.625l0.451,-0.624l0.453,-0.622l0.454,-0.621l0.457,-0.62l0.458,-0.618l0.46,-0.617l0.462,-0.616l0.463,-0.614l0.466,-0.612l0.467,-0.611l0.469,-0.61l0.471,-0.608l0.472,-0.607l0.474,-0.605l0.477,-0.604l0.477,-0.602l0.48,-0.601l0.481,-0.6l0.484,-0.598l0.484,-0.596l0.487,-0.595l0.489,-0.593l0.49,-0.592l0.492,-0.591l0.493,-0.589l0.496,-0.588l0.497,-0.586l0.498,-0.584l0.501,-0.583l0.502,-0.581l0.504,-0.58l0.506,-0.579l0.507,-0.577l0.509,-0.575l0.511,-0.574l0.512,-0.572l0.514,-0.571l0.516,-0.569l0.518,-0.568l0.519,-0.566l0.521,-0.564l0.522,-0.563l0.525,-0.562l0.525,-0.559l0.528,-0.559l0.529,-0.556l0.531,-0.555l0.532,-0.554l0.534,-0.552l0.536,-0.55l0.537,-0.548l0.539,-0.548l0.541,-0.545l0.542,-0.544l0.544,-0.542l0.545,-0.541l0.548,-0.539l0.548,-0.537l0.55,-0.536l0.552,-0.534l0.554,-0.532l0.555,-0.531l0.556,-0.529l0.559,-0.528l0.559,-0.525l0.562,-0.525l0.563,-0.522l0.564,-0.521l0.566,-0.519l0.568,-0.518l0.569,-0.516l0.571,-0.514l0.572,-0.512l0.574,-0.511l0.575,-0.509l0.577,-0.507l0.579,-0.506l0.58,-0.504l0.581,-0.502l0.583,-0.501l0.584,-0.498l0.586,-0.497l0.588,-0.496l0.589,-0.493l0.591,-0.492l0.592,-0.49l0.593,-0.489l0.595,-0.487l0.596,-0.484l0.598,-0.484l0.6,-0.481l0.601,-0.48l0.602,-0.477l0.604,-0.477l0.605,-0.474l0.607,-0.472l0.608,-0.471l0.61,-0.469l0.611,-0.467l0.612,-0.466l0.614,-0.463l0.616,-0.462l0.617,-0.46l0.618,-0.458l0.62,-0.457l0.621,-0.454l0.622,-0.453l0.624,-0.451l0.625,-0.449l0.627,-0.447l0.628,-0.445l0.63,-0.444l0.63,-0.442l0.633,-0.439l0.633,-0.438l0.635,-0.437l0.637,-0.434l0.638,-0.432l0.639,-0.431l0.64,-0.428l0.642,-0.427l0.643,-0.425l0.645,-0.423l0.646,-0.421l0.647,-0.42l0.648,-0.417l0.65,-0.415l0.652,-0.414l0.652,-0.412l0.654,-0.409l0.655,-0.408l0.657,-0.406l0.658,-0.404l0.659,-0.402l0.66,-0.4l0.662,-0.398l0.663,-0.396l0.664,-0.395l0.666,-0.392l0.667,-0.391l0.668,-0.388l0.669,-0.386l0.671,-0.385l0.672,-0.382l0.673,-0.381l0.675,-0.379l0.675,-0.376l0.677,-0.375l0.679,-0.372l0.679,-0.371l0.681,-0.369l0.682,-0.366l0.683,-0.365l0.684,-0.363l0.686,-0.36l0.687,-0.359l0.688,-0.357l0.689,-0.354l0.691,-0.353l0.691,-0.35l0.693,-0.349l0.694,-0.346l0.696,-0.345l0.696,-0.342l0.698,-0.34l0.699,-0.338l0.7,-0.337l0.701,-0.334l0.702,-0.332l0.704,-0.33l0.704,-0.328l0.706,-0.326l0.707,-0.323l0.708,-0.322l0.71,-0.32l0.71,-0.317l0.712,-0.316l0.712,-0.313l0.714,-0.311l0.715,-0.309l0.716,-0.307l0.717,-0.305l0.718,-0.303l0.72,-0.3l0.72,-0.299l0.722,-0.296l0.723,-0.294l0.723,-0.292l0.725,-0.29l0.726,-0.288l0.727,-0.286l0.728,-0.283l0.73,-0.281l0.73,-0.28l0.731,-0.277l0.733,-0.274l0.733,-0.273l0.735,-0.27l0.735,-0.269l0.737,-0.266l0.737,-0.264l0.739,-0.261l0.74,-0.26l0.74,-0.257l0.742,-0.255l0.743,-0.253l0.744,-0.251l0.745,-0.248l0.745,-0.246l0.747,-0.244l0.748,-0.242l0.749,-0.239l0.75,-0.238l0.751,-0.235l0.751,-0.232l0.753,-0.231l0.754,-0.228l0.755,-0.226l0.755,-0.224l0.757,-0.221l0.758,-0.22l0.758,-0.217l0.76,-0.214l0.76,-0.213l0.762,-0.21l0.762,-0.207l0.764,-0.206l0.764,-0.203l0.765,-0.201l0.766,-0.199l0.767,-0.196l0.768,-0.194l0.769,-0.191l0.77,-0.19l0.771,-0.187l0.771,-0.184l0.773,-0.183l0.773,-0.18l0.774,-0.177l0.776,-0.176l0.776,-0.173l0.777,-0.17l0.778,-0.169l0.778,-0.165l0.78,-0.164l0.78,-0.161l0.782,-0.159l0.782,-0.156l0.783,-0.154l0.784,-0.152l0.784,-0.149l0.786,-0.147l0.786,-0.144l0.787,-0.143l0.788,-0.139l0.789,-0.137l0.79,-0.135l0.79,-0.133l0.792,-0.13l0.792,-0.127l0.793,-0.125l0.794,-0.123l0.794,-0.12l0.795,-0.118l0.797,-0.116l0.796,-0.112l0.798,-0.111l0.799,-0.108l0.799,-0.106l0.8,-0.103l0.801,-0.1l0.801,-0.098l0.802,-0.096l0.803,-0.093l0.804,-0.091l0.805,-0.088l0.805,-0.086l0.806,-0.083l0.807,-0.081l0.807,-0.078l0.809,-0.076l0.808,-0.073l0.81,-0.071l0.81,-0.068l0.812,-0.066l0.811,-0.063l0.813,-0.061l0.813,-0.058l0.814,-0.055l0.814,-0.053l0.816,-0.051l0.816,-0.047l0.816,-0.046l0.818,-0.043l0.818,-0.04l0.818,-0.038l0.82,-0.035l0.819,-0.032l0.821,-0.03l0.821,-0.027l0.822,-0.025l0.823,-0.022l0.823,-0.02l0.824,-0.017l0.824,-0.014l0.825,-0.012l0.826,-0.009l0.826,-0.007l0.827,-0.004l0.828,-0.001l0.828,0.001l0.827,0.004l0.826,0.007l0.826,0.009l0.825,0.012l0.824,0.014l0.824,0.017l0.823,0.02l0.823,0.022l0.822,0.025l0.821,0.027l0.821,0.03l0.819,0.032l0.82,0.035l0.818,0.038l0.818,0.04l0.818,0.043l0.816,0.046l0.816,0.047l0.816,0.051l0.814,0.053l0.814,0.055l0.813,0.058l0.813,0.061l0.811,0.063l0.812,0.066l0.81,0.068l0.81,0.071l0.808,0.073l0.809,0.076l0.807,0.078l0.807,0.081l0.806,0.083l0.805,0.086l0.805,0.088l0.804,0.091l0.803,0.093l0.802,0.096l0.801,0.098l0.801,0.1l0.8,0.103l0.799,0.106l0.799,0.108l0.798,0.111l0.796,0.112l0.797,0.116l0.795,0.118l0.794,0.12l0.794,0.123l0.793,0.125l0.792,0.127l0.792,0.13l0.79,0.133l0.79,0.135l0.789,0.137l0.788,0.139l0.787,0.143l0.786,0.144l0.786,0.147l0.784,0.149l0.784,0.152l0.783,0.154l0.782,0.156l0.782,0.159l0.78,0.161l0.78,0.164l0.778,0.165l0.778,0.169l0.777,0.17l0.776,0.173l0.776,0.176l0.774,0.177l0.773,0.18l0.773,0.183l0.771,0.184l0.771,0.187l0.77,0.19l0.769,0.191l0.768,0.194l0.767,0.196l0.766,0.199l0.765,0.201l0.764,0.203l0.764,0.206l0.762,0.207l0.762,0.21l0.76,0.213l0.76,0.214l0.758,0.217l0.758,0.22l0.757,0.221l0.755,0.224l0.755,0.226l0.754,0.228l0.753,0.231l0.751,0.232l0.751,0.235l0.75,0.238l0.749,0.239l0.748,0.242l0.747,0.244l0.745,0.246l0.745,0.248l0.744,0.251l0.743,0.253l0.742,0.255l0.74,0.257l0.74,0.26l0.739,0.261l0.737,0.264l0.737,0.266l0.735,0.269l0.735,0.27l0.733,0.273l0.733,0.274l0.731,0.277l0.73,0.28l0.73,0.281l0.728,0.283l0.727,0.286l0.726,0.288l0.725,0.29l0.723,0.292l0.723,0.294l0.722,0.296l0.72,0.299l0.72,0.3l0.718,0.303l0.717,0.305l0.716,0.307l0.715,0.309l0.714,0.311l0.712,0.313l0.712,0.316l0.71,0.317l0.71,0.32l0.708,0.322l0.707,0.323l0.706,0.326l0.704,0.328l0.704,0.33l0.702,0.332l0.701,0.334l0.7,0.337l0.699,0.338l0.698,0.34l0.696,0.342l0.696,0.345l0.694,0.346l0.693,0.349l0.691,0.35l0.691,0.353l0.689,0.354l0.688,0.357l0.687,0.359l0.686,0.36l0.684,0.363l0.683,0.365l0.682,0.366l0.681,0.369l0.679,0.371l0.679,0.372l0.677,0.375l0.675,0.376l0.675,0.379l0.673,0.381l0.672,0.382l0.671,0.385l0.669,0.386l0.668,0.388l0.667,0.391l0.666,0.392l0.664,0.395l0.663,0.396l0.662,0.398l0.66,0.4l0.659,0.402l0.658,0.404l0.657,0.406l0.655,0.408l0.654,0.409l0.652,0.412l0.652,0.414l0.65,0.415l0.648,0.417l0.647,0.42l0.646,0.421l0.645,0.423l0.643,0.425l0.642,0.427l0.64,0.428l0.639,0.431l0.638,0.432l0.637,0.434l0.635,0.437l0.633,0.438l0.633,0.439l0.63,0.442l0.63,0.444l0.628,0.445l0.627,0.447l0.625,0.449l0.624,0.451l0.622,0.453l0.621,0.454l0.62,0.457l0.618,0.458l0.617,0.46l0.616,0.462l0.614,0.463l0.612,0.466l0.611,0.467l0.61,0.469l0.608,0.471l0.607,0.472l0.605,0.474l0.604,0.477l0.602,0.477l0.601,0.48l0.6,0.481l0.598,0.484l0.596,0.484l0.595,0.487l0.593,0.489l0.592,0.49l0.591,0.492l0.589,0.493l0.588,0.496l0.586,0.497l0.584,0.498l0.583,0.501l0.581,0.502l0.58,0.504l0.579,0.506l0.577,0.507l0.575,0.509l0.574,0.511l0.572,0.512l0.571,0.514l0.569,0.516l0.568,0.518l0.566,0.519l0.564,0.521l0.563,0.522l0.562,0.525l0.559,0.525l0.559,0.528l0.556,0.529l0.555,0.531l0.554,0.532l0.552,0.534l0.55,0.536l0.548,0.537l0.548,0.539l0.545,0.541l0.544,0.542l0.542,0.544l0.541,0.545l0.539,0.548l0.537,0.548l0.536,0.55l0.534,0.552l0.532,0.554l0.531,0.555l0.529,0.556l0.528,0.559l0.525,0.559l0.525,0.562l0.522,0.563l0.521,0.564l0.519,0.566l0.518,0.568l0.516,0.569l0.514,0.571l0.512,0.572l0.511,0.574l0.509,0.575l0.507,0.577l0.506,0.579l0.504,0.58l0.502,0.581l0.501,0.583l0.498,0.584l0.497,0.586l0.496,0.588l0.493,0.589l0.492,0.591l0.49,0.592l0.489,0.593l0.487,0.595l0.484,0.596l0.484,0.598l0.481,0.6l0.48,0.601l0.477,0.602l0.477,0.604l0.474,0.605l0.472,0.607l0.471,0.608l0.469,0.61l0.467,0.611l0.466,0.612l0.463,0.614l0.462,0.616l0.46,0.617l0.458,0.618l0.457,0.62l0.454,0.621l0.453,0.622l0.451,0.624l0.449,0.625l0.447,0.627l0.445,0.628l0.444,0.63l0.442,0.63l0.439,0.633l0.438,0.633l0.437,0.635l0.434,0.637l0.432,0.638l0.431,0.639l0.428,0.64l0.427,0.642l0.425,0.643l0.423,0.645l0.421,0.646l0.42,0.647l0.417,0.648l0.415,0.65l0.414,0.652l0.412,0.652l0.409,0.654l0.408,0.655l0.406,0.657l0.404,0.658l0.402,0.659l0.4,0.66l0.398,0.662l0.396,0.663l0.395,0.664l0.392,0.666l0.391,0.667l0.388,0.668l0.386,0.669l0.385,0.671l0.382,0.672l0.381,0.673l0.379,0.675l0.376,0.675l0.375,0.677l0.372,0.679l0.371,0.679l0.369,0.681l0.366,0.682l0.365,0.683l0.363,0.684l0.36,0.686l0.359,0.687l0.357,0.688l0.354,0.689l0.353,0.691l0.35,0.691l0.349,0.693l0.346,0.694l0.345,0.696l0.342,0.696l0.34,0.698l0.338,0.699l0.337,0.7l0.334,0.701l0.332,0.702l0.33,0.704l0.328,0.704l0.326,0.706l0.323,0.707l0.322,0.708l0.32,0.71l0.317,0.71l0.316,0.712l0.313,0.712l0.311,0.714l0.309,0.715l0.307,0.716l0.305,0.717l0.303,0.718l0.3,0.72l0.299,0.72l0.296,0.722l0.294,0.723l0.292,0.723l0.29,0.725l0.288,0.726l0.286,0.727l0.283,0.728l0.281,0.73l0.28,0.73l0.277,0.731l0.274,0.733l0.273,0.733l0.27,0.735l0.269,0.735l0.266,0.737l0.264,0.737l0.261,0.739l0.26,0.74l0.257,0.74l0.255,0.742l0.253,0.743l0.251,0.744l0.248,0.745l0.246,0.745l0.244,0.747l0.242,0.748l0.239,0.749l0.238,0.75l0.235,0.751l0.232,0.751l0.231,0.753l0.228,0.754l0.226,0.755l0.224,0.755l0.221,0.757l0.22,0.758l0.217,0.758l0.214,0.76l0.213,0.76l0.21,0.762l0.207,0.762l0.206,0.764l0.203,0.764l0.201,0.765l0.199,0.766l0.196,0.767l0.194,0.768l0.191,0.769l0.19,0.77l0.187,0.771l0.184,0.771l0.183,0.773l0.18,0.773l0.177,0.774l0.176,0.776l0.173,0.776l0.17,0.777l0.169,0.778l0.165,0.778l0.164,0.78l0.161,0.78l0.159,0.782l0.156,0.782l0.154,0.783l0.152,0.784l0.149,0.784l0.147,0.786l0.144,0.786l0.143,0.787l0.139,0.788l0.137,0.789l0.135,0.79l0.133,0.79l0.13,0.792l0.127,0.792l0.125,0.793l0.123,0.794l0.12,0.794l0.118,0.795l0.116,0.797l0.112,0.796l0.111,0.798l0.108,0.799l0.106,0.799l0.103,0.8l0.1,0.801l0.098,0.801l0.096,0.802l0.093,0.803l0.091,0.804l0.088,0.805l0.086,0.805l0.083,0.806l0.081,0.807l0.078,0.807l0.076,0.809l0.073,0.808l0.071,0.81l0.068,0.81l0.066,0.812l0.063,0.811l0.061,0.813l0.058,0.813l0.055,0.814l0.053,0.814l0.051,0.816l0.047,0.816l0.046,0.816l0.043,0.818l0.04,0.818l0.038,0.818l0.035,0.82l0.032,0.819l0.03,0.821l0.027,0.821l0.025,0.822l0.022,0.823l0.02,0.823l0.017,0.824l0.014,0.824l0.012,0.825l0.009,0.826l0.007,0.826l0.004,0.827l0.001,0.828l-0.001,0.828l-0.004,0.827l-0.007,0.826l-0.009,0.826l-0.012,0.825l-0.014,0.824l-0.017,0.824l-0.02,0.823l-0.022,0.823l-0.025,0.822l-0.027,0.821l-0.03,0.821l-0.032,0.819l-0.035,0.82l-0.038,0.818l-0.04,0.818l-0.043,0.818l-0.046,0.816l-0.047,0.816l-0.051,0.816l-0.053,0.814l-0.055,0.814l-0.058,0.813l-0.061,0.813l-0.063,0.811l-0.066,0.812l-0.068,0.81l-0.071,0.81l-0.073,0.808l-0.076,0.809l-0.078,0.807l-0.081,0.807l-0.083,0.806l-0.086,0.805l-0.088,0.805l-0.091,0.804l-0.093,0.803l-0.096,0.802l-0.098,0.801l-0.1,0.801l-0.103,0.8l-0.106,0.799l-0.108,0.799l-0.111,0.798l-0.112,0.796l-0.116,0.797l-0.118,0.795l-0.12,0.794l-0.123,0.794l-0.125,0.793l-0.127,0.792l-0.13,0.792l-0.133,0.79l-0.135,0.79l-0.137,0.789l-0.139,0.788l-0.143,0.787l-0.144,0.786l-0.147,0.786l-0.149,0.784l-0.152,0.784l-0.154,0.783l-0.156,0.782l-0.159,0.782l-0.161,0.78l-0.164,0.78l-0.165,0.778l-0.169,0.778l-0.17,0.777l-0.173,0.776l-0.176,0.776l-0.177,0.774l-0.18,0.773l-0.183,0.773l-0.184,0.771l-0.187,0.771l-0.19,0.77l-0.191,0.769l-0.194,0.768l-0.196,0.767l-0.199,0.766l-0.201,0.765l-0.203,0.764l-0.206,0.764l-0.207,0.762l-0.21,0.762l-0.213,0.76l-0.214,0.76l-0.217,0.758l-0.22,0.758l-0.221,0.757l-0.224,0.755l-0.226,0.755l-0.228,0.754l-0.231,0.753l-0.232,0.751l-0.235,0.751l-0.238,0.75l-0.239,0.749l-0.242,0.748l-0.244,0.747l-0.246,0.745l-0.248,0.745l-0.251,0.744l-0.253,0.743l-0.255,0.742l-0.257,0.74l-0.26,0.74l-0.261,0.739l-0.264,0.737l-0.266,0.737l-0.269,0.735l-0.27,0.735l-0.273,0.733l-0.274,0.733l-0.277,0.731l-0.28,0.73l-0.281,0.73l-0.283,0.728l-0.286,0.727l-0.288,0.726l-0.29,0.725l-0.292,0.723l-0.294,0.723l-0.296,0.722l-0.299,0.72l-0.3,0.72l-0.303,0.718l-0.305,0.717l-0.307,0.716l-0.309,0.715l-0.311,0.714l-0.313,0.712l-0.316,0.712l-0.317,0.71l-0.32,0.71l-0.322,0.708l-0.323,0.707l-0.326,0.706l-0.328,0.704l-0.33,0.704l-0.332,0.702l-0.334,0.701l-0.337,0.7l-0.338,0.699l-0.34,0.698l-0.342,0.696l-0.345,0.696l-0.346,0.694l-0.349,0.693l-0.35,0.691l-0.353,0.691l-0.354,0.689l-0.357,0.688l-0.359,0.687l-0.36,0.686l-0.363,0.684l-0.365,0.683l-0.366,0.682l-0.369,0.681l-0.371,0.679l-0.372,0.679l-0.375,0.677l-0.376,0.675l-0.379,0.675l-0.381,0.673l-0.382,0.672l-0.385,0.671l-0.386,0.669l-0.388,0.668l-0.391,0.667l-0.392,0.666l-0.395,0.664l-0.396,0.663l-0.398,0.662l-0.4,0.66l-0.402,0.659l-0.404,0.658l-0.406,0.657l-0.408,0.655l-0.409,0.654l-0.412,0.652l-0.414,0.652l-0.415,0.65l-0.417,0.648l-0.42,0.647l-0.421,0.646l-0.423,0.645l-0.425,0.643l-0.427,0.642l-0.428,0.64l-0.431,0.639l-0.432,0.638l-0.434,0.637l-0.437,0.635l-0.438,0.633l-0.439,0.633l-0.442,0.63l-0.444,0.63l-0.445,0.628l-0.447,0.627l-0.449,0.625l-0.451,0.624l-0.453,0.622l-0.454,0.621l-0.457,0.62l-0.458,0.618l-0.46,0.617l-0.462,0.616l-0.463,0.614l-0.466,0.612l-0.467,0.611l-0.469,0.61l-0.471,0.608l-0.472,0.607l-0.474,0.605l-0.477,0.604l-0.477,0.602l-0.48,0.601l-0.481,0.6l-0.484,0.598l-0.484,0.596l-0.487,0.595l-0.489,0.593l-0.49,0.592l-0.492,0.591l-0.493,0.589l-0.496,0.588l-0.497,0.586l-0.498,0.584l-0.501,0.583l-0.502,0.581l-0.504,0.58l-0.506,0.579l-0.507,0.577l-0.509,0.575l-0.511,0.574l-0.512,0.572l-0.514,0.571l-0.516,0.569l-0.518,0.568l-0.519,0.566l-0.521,0.564l-0.522,0.563l-0.525,0.562l-0.525,0.559l-0.528,0.559l-0.529,0.556l-0.531,0.555l-0.532,0.554l-0.534,0.552l-0.536,0.55l-0.537,0.548l-0.539,0.548l-0.541,0.545l-0.542,0.544l-0.544,0.542l-0.545,0.541l-0.548,0.539l-0.548,0.537l-0.55,0.536l-0.552,0.534l-0.554,0.532l-0.555,0.531l-0.556,0.529l-0.559,0.528l-0.559,0.525l-0.562,0.525l-0.563,0.522l-0.564,0.521l-0.566,0.519l-0.568,0.518l-0.569,0.516l-0.571,0.514l-0.572,0.512l-0.574,0.511l-0.575,0.509l-0.577,0.507l-0.579,0.506l-0.58,0.504l-0.581,0.502l-0.583,0.501l-0.584,0.498l-0.586,0.497l-0.588,0.496l-0.589,0.493l-0.591,0.492l-0.592,0.49l-0.593,0.489l-0.595,0.487l-0.596,0.484l-0.598,0.484l-0.6,0.481l-0.601,0.48l-0.602,0.477l-0.604,0.477l-0.605,0.474l-0.607,0.472l-0.608,0.471l-0.61,0.469l-0.611,0.467l-0.612,0.466l-0.614,0.463l-0.616,0.462l-0.617,0.46l-0.618,0.458l-0.62,0.457l-0.621,0.454l-0.622,0.453l-0.624,0.451l-0.625,0.449l-0.627,0.447l-0.628,0.445l-0.63,0.444l-0.63,0.442l-0.633,0.439l-0.633,0.438l-0.635,0.437l-0.637,0.434l-0.638,0.432l-0.639,0.431l-0.64,0.428l-0.642,0.427l-0.643,0.425l-0.645,0.423l-0.646,0.421l-0.647,0.42l-0.648,0.417l-0.65,0.415l-0.652,0.414l-0.652,0.412l-0.654,0.409l-0.655,0.408l-0.657,0.406l-0.658,0.404l-0.659,0.402l-0.66,0.4l-0.662,0.398l-0.663,0.396l-0.664,0.395l-0.666,0.392l-0.667,0.391l-0.668,0.388l-0.669,0.386l-0.671,0.385l-0.672,0.382l-0.673,0.381l-0.675,0.379l-0.675,0.376l-0.677,0.375l-0.679,0.372l-0.679,0.371l-0.681,0.369l-0.682,0.366l-0.683,0.365l-0.684,0.363l-0.686,0.36l-0.687,0.359l-0.688,0.357l-0.689,0.354l-0.691,0.353l-0.691,0.35l-0.693,0.349l-0.694,0.346l-0.696,0.345l-0.696,0.342l-0.698,0.34l-0.699,0.338l-0.7,0.337l-0.701,0.334l-0.702,0.332l-0.704,0.33l-0.704,0.328l-0.706,0.326l-0.707,0.323l-0.708,0.322l-0.71,0.32l-0.71,0.317l-0.712,0.316l-0.712,0.313l-0.714,0.311l-0.715,0.309l-0.716,0.307l-0.717,0.305l-0.718,0.303l-0.72,0.3l-0.72,0.299l-0.722,0.296l-0.723,0.294l-0.723,0.292l-0.725,0.29l-0.726,0.288l-0.727,0.286l-0.728,0.283l-0.73,0.281l-0.73,0.28l-0.731,0.277l-0.733,0.274l-0.733,0.273l-0.735,0.27l-0.735,0.269l-0.737,0.266l-0.737,0.264l-0.739,0.261l-0.74,0.26l-0.74,0.257l-0.742,0.255l-0.743,0.253l-0.744,0.251l-0.745,0.248l-0.745,0.246l-0.747,0.244l-0.748,0.242l-0.749,0.239l-0.75,0.238l-0.751,0.235l-0.751,0.232l-0.753,0.231l-0.754,0.228l-0.755,0.226l-0.755,0.224l-0.757,0.221l-0.758,0.22l-0.758,0.217l-0.76,0.214l-0.76,0.213l-0.762,0.21l-0.762,0.207l-0.764,0.206l-0.764,0.203l-0.765,0.201l-0.766,0.199l-0.767,0.196l-0.768,0.194l-0.769,0.191l-0.77,0.19l-0.771,0.187l-0.771,0.184l-0.773,0.183l-0.773,0.18l-0.774,0.177l-0.776,0.176l-0.776,0.173l-0.777,0.17l-0.778,0.169l-0.778,0.165l-0.78,0.164l-0.78,0.161l-0.782,0.159l-0.782,0.156l-0.783,0.154l-0.784,0.152l-0.784,0.149l-0.786,0.147l-0.786,0.144l-0.787,0.143l-0.788,0.139l-0.789,0.137l-0.79,0.135l-0.79,0.133l-0.792,0.13l-0.792,0.127l-0.793,0.125l-0.794,0.123l-0.794,0.12l-0.795,0.118l-0.797,0.116l-0.796,0.112l-0.798,0.111l-0.799,0.108l-0.799,0.106l-0.8,0.103l-0.801,0.1l-0.801,0.098l-0.802,0.096l-0.803,0.093l-0.804,0.091l-0.805,0.088l-0.805,0.086l-0.806,0.083l-0.807,0.081l-0.807,0.078l-0.809,0.076l-0.808,0.073l-0.81,0.071l-0.81,0.068l-0.812,0.066l-0.811,0.063l-0.813,0.061l-0.813,0.058l-0.814,0.055l-0.814,0.053l-0.816,0.051l-0.816,0.047l-0.816,0.046l-0.818,0.043l-0.818,0.04l-0.818,0.038l-0.82,0.035l-0.819,0.032l-0.821,0.03l-0.821,0.027l-0.822,0.025l-0.823,0.022l-0.823,0.02l-0.824,0.017l-0.824,0.014l-0.825,0.012l-0.826,0.009l-0.826,0.007l-0.827,0.004l-0.828,0.001ZM256,487l0.748,-0.001l0.748,-0.004l0.747,-0.006l0.747,-0.008l0.745,-0.011l0.746,-0.013l0.744,-0.015l0.744,-0.018l0.743,-0.02l0.743,-0.022l0.742,-0.025l0.742,-0.027l0.74,-0.029l0.74,-0.032l0.74,-0.034l0.739,-0.036l0.738,-0.039l0.738,-0.041l0.737,-0.043l0.736,-0.046l0.735,-0.048l0.735,-0.05l0.735,-0.052l0.733,-0.055l0.733,-0.057l0.733,-0.059l0.731,-0.062l0.731,-0.064l0.73,-0.066l0.73,-0.068l0.729,-0.071l0.728,-0.073l0.727,-0.075l0.727,-0.077l0.726,-0.08l0.725,-0.082l0.725,-0.084l0.724,-0.086l0.723,-0.089l0.723,-0.09l0.722,-0.093l0.721,-0.096l0.72,-0.097l0.72,-0.1l0.718,-0.102l0.719,-0.104l0.717,-0.106l0.717,-0.109l0.716,-0.11l0.715,-0.113l0.715,-0.115l0.713,-0.117l0.713,-0.12l0.713,-0.121l0.711,-0.124l0.711,-0.126l0.71,-0.128l0.709,-0.13l0.708,-0.133l0.708,-0.135l0.707,-0.136l0.706,-0.139l0.705,-0.141l0.705,-0.143l0.703,-0.146l0.703,-0.147l0.703,-0.15l0.7,-0.151l0.701,-0.154l0.7,-0.156l0.699,-0.158l0.698,-0.16l0.697,-0.163l0.697,-0.164l0.696,-0.167l0.695,-0.168l0.693,-0.171l0.694,-0.173l0.692,-0.175l0.692,-0.176l0.69,-0.179l0.69,-0.182l0.689,-0.183l0.689,-0.185l0.687,-0.187l0.686,-0.19l0.686,-0.191l0.685,-0.194l0.684,-0.195l0.683,-0.198l0.682,-0.2l0.681,-0.201l0.681,-0.204l0.679,-0.206l0.679,-0.208l0.678,-0.21l0.676,-0.211l0.676,-0.214l0.675,-0.216l0.674,-0.218l0.674,-0.22l0.673,-0.222l0.671,-0.224l0.67,-0.226l0.67,-0.228l0.669,-0.23l0.668,-0.232l0.666,-0.234l0.666,-0.236l0.665,-0.238l0.665,-0.239l0.663,-0.242l0.662,-0.244l0.661,-0.246l0.661,-0.248l0.659,-0.249l0.658,-0.252l0.658,-0.254l0.657,-0.255l0.655,-0.258l0.654,-0.259l0.654,-0.262l0.653,-0.263l0.651,-0.265l0.651,-0.268l0.65,-0.269l0.648,-0.271l0.648,-0.273l0.647,-0.275l0.645,-0.276l0.645,-0.279l0.644,-0.281l0.643,-0.282l0.642,-0.285l0.64,-0.286l0.64,-0.288l0.638,-0.29l0.638,-0.292l0.636,-0.294l0.636,-0.296l0.635,-0.298l0.633,-0.299l0.632,-0.301l0.631,-0.304l0.631,-0.305l0.629,-0.307l0.628,-0.308l0.628,-0.311l0.626,-0.313l0.625,-0.314l0.624,-0.316l0.623,-0.318l0.621,-0.32l0.621,-0.322l0.619,-0.323l0.619,-0.326l0.618,-0.327l0.616,-0.329l0.615,-0.331l0.614,-0.332l0.613,-0.335l0.612,-0.336l0.611,-0.338l0.61,-0.339l0.608,-0.342l0.608,-0.343l0.606,-0.346l0.605,-0.347l0.604,-0.348l0.603,-0.351l0.602,-0.352l0.6,-0.354l0.6,-0.356l0.598,-0.357l0.598,-0.36l0.595,-0.361l0.595,-0.362l0.593,-0.365l0.593,-0.366l0.592,-0.369l0.59,-0.369l0.588,-0.372l0.588,-0.373l0.587,-0.375l0.585,-0.376l0.584,-0.379l0.583,-0.38l0.582,-0.382l0.58,-0.383l0.58,-0.386l0.578,-0.387l0.577,-0.388l0.575,-0.39l0.575,-0.393l0.573,-0.393l0.572,-0.395l0.571,-0.398l0.57,-0.398l0.567,-0.4l0.568,-0.403l0.565,-0.403l0.565,-0.406l0.563,-0.407l0.562,-0.408l0.561,-0.411l0.559,-0.412l0.558,-0.413l0.557,-0.416l0.556,-0.417l0.554,-0.418l0.553,-0.42l0.552,-0.422l0.55,-0.424l0.55,-0.425l0.547,-0.426l0.547,-0.428l0.545,-0.43l0.544,-0.432l0.542,-0.433l0.542,-0.434l0.539,-0.437l0.539,-0.438l0.537,-0.439l0.536,-0.441l0.535,-0.442l0.533,-0.445l0.531,-0.445l0.531,-0.448l0.53,-0.449l0.527,-0.45l0.526,-0.452l0.526,-0.453l0.523,-0.456l0.523,-0.456l0.521,-0.458l0.519,-0.46l0.518,-0.461l0.517,-0.463l0.516,-0.464l0.513,-0.466l0.513,-0.467l0.511,-0.469l0.51,-0.47l0.508,-0.472l0.507,-0.474l0.506,-0.475l0.504,-0.476l0.502,-0.478l0.502,-0.479l0.5,-0.481l0.498,-0.482l0.497,-0.484l0.495,-0.485l0.494,-0.487l0.493,-0.488l0.491,-0.49l0.49,-0.491l0.488,-0.493l0.487,-0.494l0.485,-0.495l0.484,-0.497l0.482,-0.498l0.481,-0.5l0.479,-0.502l0.478,-0.502l0.476,-0.504l0.475,-0.506l0.474,-0.507l0.472,-0.508l0.47,-0.51l0.469,-0.511l0.467,-0.513l0.466,-0.513l0.464,-0.516l0.463,-0.517l0.461,-0.518l0.46,-0.519l0.458,-0.521l0.456,-0.523l0.456,-0.523l0.453,-0.526l0.452,-0.526l0.45,-0.527l0.449,-0.53l0.448,-0.531l0.445,-0.531l0.445,-0.533l0.442,-0.535l0.441,-0.536l0.439,-0.537l0.438,-0.539l0.437,-0.539l0.434,-0.542l0.433,-0.542l0.432,-0.544l0.43,-0.545l0.428,-0.547l0.426,-0.547l0.425,-0.55l0.424,-0.55l0.422,-0.552l0.42,-0.553l0.418,-0.554l0.417,-0.556l0.416,-0.557l0.413,-0.558l0.412,-0.559l0.411,-0.561l0.408,-0.562l0.407,-0.563l0.406,-0.565l0.403,-0.565l0.403,-0.568l0.4,-0.567l0.398,-0.57l0.398,-0.571l0.395,-0.572l0.393,-0.573l0.393,-0.575l0.39,-0.575l0.388,-0.577l0.387,-0.578l0.386,-0.58l0.383,-0.58l0.382,-0.582l0.38,-0.583l0.379,-0.584l0.376,-0.585l0.375,-0.587l0.373,-0.588l0.372,-0.588l0.369,-0.59l0.369,-0.592l0.366,-0.593l0.365,-0.593l0.362,-0.595l0.361,-0.595l0.36,-0.598l0.357,-0.598l0.356,-0.6l0.354,-0.6l0.352,-0.602l0.351,-0.603l0.348,-0.604l0.347,-0.605l0.346,-0.606l0.343,-0.608l0.342,-0.608l0.339,-0.61l0.338,-0.611l0.336,-0.612l0.335,-0.613l0.332,-0.614l0.331,-0.615l0.329,-0.616l0.327,-0.618l0.326,-0.619l0.323,-0.619l0.322,-0.621l0.32,-0.621l0.318,-0.623l0.316,-0.624l0.314,-0.625l0.313,-0.626l0.311,-0.628l0.308,-0.628l0.307,-0.629l0.305,-0.631l0.304,-0.631l0.301,-0.632l0.299,-0.633l0.298,-0.635l0.296,-0.636l0.294,-0.636l0.292,-0.638l0.29,-0.638l0.288,-0.64l0.286,-0.64l0.285,-0.642l0.282,-0.643l0.281,-0.644l0.279,-0.645l0.276,-0.645l0.275,-0.647l0.273,-0.648l0.271,-0.648l0.269,-0.65l0.268,-0.651l0.265,-0.651l0.263,-0.653l0.262,-0.654l0.259,-0.654l0.258,-0.655l0.255,-0.657l0.254,-0.658l0.252,-0.658l0.249,-0.659l0.248,-0.661l0.246,-0.661l0.244,-0.662l0.242,-0.663l0.239,-0.665l0.238,-0.665l0.236,-0.666l0.234,-0.666l0.232,-0.668l0.23,-0.669l0.228,-0.67l0.226,-0.67l0.224,-0.671l0.222,-0.673l0.22,-0.674l0.218,-0.674l0.216,-0.675l0.214,-0.676l0.211,-0.676l0.21,-0.678l0.208,-0.679l0.206,-0.679l0.204,-0.681l0.201,-0.681l0.2,-0.682l0.198,-0.683l0.195,-0.684l0.194,-0.685l0.191,-0.686l0.19,-0.686l0.187,-0.687l0.185,-0.689l0.183,-0.689l0.182,-0.69l0.179,-0.69l0.176,-0.692l0.175,-0.692l0.173,-0.694l0.171,-0.693l0.168,-0.695l0.167,-0.696l0.164,-0.697l0.163,-0.697l0.16,-0.698l0.158,-0.699l0.156,-0.7l0.154,-0.701l0.151,-0.7l0.15,-0.703l0.147,-0.703l0.146,-0.703l0.143,-0.705l0.141,-0.705l0.139,-0.706l0.136,-0.707l0.135,-0.708l0.133,-0.708l0.13,-0.709l0.128,-0.71l0.126,-0.711l0.124,-0.711l0.121,-0.713l0.12,-0.713l0.117,-0.713l0.115,-0.715l0.113,-0.715l0.11,-0.716l0.109,-0.717l0.106,-0.717l0.104,-0.719l0.102,-0.718l0.1,-0.72l0.097,-0.72l0.096,-0.721l0.093,-0.722l0.09,-0.723l0.089,-0.723l0.086,-0.724l0.084,-0.725l0.082,-0.725l0.08,-0.726l0.077,-0.727l0.075,-0.727l0.073,-0.728l0.071,-0.729l0.068,-0.73l0.066,-0.73l0.064,-0.731l0.062,-0.731l0.059,-0.733l0.057,-0.733l0.055,-0.733l0.052,-0.735l0.05,-0.735l0.048,-0.735l0.046,-0.736l0.043,-0.737l0.041,-0.738l0.039,-0.738l0.036,-0.739l0.034,-0.74l0.032,-0.74l0.029,-0.74l0.027,-0.742l0.025,-0.742l0.022,-0.743l0.02,-0.743l0.018,-0.744l0.015,-0.744l0.013,-0.746l0.011,-0.745l0.008,-0.747l0.006,-0.747l0.004,-0.748l0.001,-0.748l-0.001,-0.748l-0.004,-0.748l-0.006,-0.747l-0.008,-0.747l-0.011,-0.745l-0.013,-0.746l-0.015,-0.744l-0.018,-0.744l-0.02,-0.743l-0.022,-0.743l-0.025,-0.742l-0.027,-0.742l-0.029,-0.74l-0.032,-0.74l-0.034,-0.74l-0.036,-0.739l-0.039,-0.738l-0.041,-0.738l-0.043,-0.737l-0.046,-0.736l-0.048,-0.735l-0.05,-0.735l-0.052,-0.735l-0.055,-0.733l-0.057,-0.733l-0.059,-0.733l-0.062,-0.731l-0.064,-0.731l-0.066,-0.73l-0.068,-0.73l-0.071,-0.729l-0.073,-0.728l-0.075,-0.727l-0.077,-0.727l-0.08,-0.726l-0.082,-0.725l-0.084,-0.725l-0.086,-0.724l-0.089,-0.723l-0.09,-0.723l-0.093,-0.722l-0.096,-0.721l-0.097,-0.72l-0.1,-0.72l-0.102,-0.718l-0.104,-0.719l-0.106,-0.717l-0.109,-0.717l-0.11,-0.716l-0.113,-0.715l-0.115,-0.715l-0.117,-0.713l-0.12,-0.713l-0.121,-0.713l-0.124,-0.711l-0.126,-0.711l-0.128,-0.71l-0.13,-0.709l-0.133,-0.708l-0.135,-0.708l-0.136,-0.707l-0.139,-0.706l-0.141,-0.705l-0.143,-0.705l-0.146,-0.703l-0.147,-0.703l-0.15,-0.703l-0.151,-0.701l-0.154,-0.7l-0.156,-0.7l-0.158,-0.699l-0.16,-0.698l-0.163,-0.697l-0.164,-0.697l-0.167,-0.696l-0.168,-0.695l-0.171,-0.693l-0.173,-0.694l-0.175,-0.692l-0.176,-0.692l-0.179,-0.69l-0.182,-0.69l-0.183,-0.689l-0.185,-0.689l-0.187,-0.687l-0.19,-0.686l-0.191,-0.686l-0.194,-0.685l-0.195,-0.684l-0.198,-0.683l-0.2,-0.682l-0.201,-0.681l-0.204,-0.681l-0.206,-0.679l-0.208,-0.679l-0.21,-0.678l-0.211,-0.676l-0.214,-0.676l-0.216,-0.675l-0.218,-0.674l-0.22,-0.674l-0.222,-0.672l-0.224,-0.672l-0.226,-0.67l-0.228,-0.67l-0.23,-0.669l-0.232,-0.667l-0.234,-0.667l-0.236,-0.667l-0.238,-0.664l-0.239,-0.665l-0.242,-0.663l-0.244,-0.662l-0.246,-0.661l-0.248,-0.661l-0.249,-0.659l-0.252,-0.658l-0.254,-0.658l-0.255,-0.657l-0.258,-0.655l-0.259,-0.654l-0.262,-0.654l-0.263,-0.653l-0.265,-0.651l-0.267,-0.651l-0.27,-0.649l-0.271,-0.649l-0.273,-0.648l-0.275,-0.647l-0.276,-0.645l-0.279,-0.645l-0.281,-0.644l-0.282,-0.643l-0.285,-0.642l-0.286,-0.64l-0.288,-0.64l-0.29,-0.638l-0.292,-0.638l-0.294,-0.636l-0.296,-0.636l-0.298,-0.635l-0.299,-0.633l-0.301,-0.632l-0.304,-0.631l-0.305,-0.631l-0.307,-0.63l-0.309,-0.627l-0.31,-0.628l-0.313,-0.626l-0.314,-0.625l-0.316,-0.624l-0.318,-0.623l-0.32,-0.621l-0.322,-0.621l-0.323,-0.619l-0.326,-0.619l-0.327,-0.618l-0.329,-0.616l-0.331,-0.615l-0.332,-0.614l-0.335,-0.613l-0.336,-0.612l-0.338,-0.611l-0.339,-0.609l-0.342,-0.609l-0.344,-0.608l-0.345,-0.606l-0.347,-0.605l-0.348,-0.604l-0.351,-0.603l-0.352,-0.602l-0.354,-0.6l-0.356,-0.6l-0.357,-0.598l-0.36,-0.598l-0.361,-0.595l-0.362,-0.595l-0.365,-0.593l-0.366,-0.593l-0.369,-0.592l-0.369,-0.59l-0.372,-0.588l-0.373,-0.588l-0.375,-0.587l-0.376,-0.585l-0.379,-0.584l-0.38,-0.583l-0.382,-0.582l-0.383,-0.58l-0.385,-0.58l-0.388,-0.578l-0.388,-0.577l-0.39,-0.575l-0.393,-0.575l-0.393,-0.573l-0.395,-0.572l-0.398,-0.571l-0.398,-0.57l-0.4,-0.567l-0.403,-0.568l-0.403,-0.566l-0.406,-0.564l-0.407,-0.563l-0.408,-0.562l-0.411,-0.561l-0.412,-0.559l-0.413,-0.558l-0.416,-0.557l-0.417,-0.556l-0.418,-0.554l-0.42,-0.553l-0.422,-0.552l-0.424,-0.55l-0.425,-0.55l-0.426,-0.547l-0.428,-0.547l-0.43,-0.545l-0.432,-0.544l-0.433,-0.542l-0.434,-0.541l-0.437,-0.54l-0.437,-0.539l-0.44,-0.537l-0.441,-0.536l-0.442,-0.535l-0.445,-0.533l-0.445,-0.532l-0.448,-0.53l-0.449,-0.53l-0.45,-0.527l-0.452,-0.526l-0.453,-0.526l-0.456,-0.523l-0.456,-0.523l-0.458,-0.521l-0.46,-0.519l-0.461,-0.518l-0.463,-0.517l-0.464,-0.516l-0.466,-0.513l-0.467,-0.513l-0.469,-0.511l-0.47,-0.51l-0.472,-0.508l-0.474,-0.508l-0.475,-0.505l-0.476,-0.504l-0.478,-0.503l-0.479,-0.501l-0.481,-0.5l-0.482,-0.498l-0.484,-0.497l-0.485,-0.495l-0.487,-0.494l-0.488,-0.493l-0.49,-0.491l-0.491,-0.49l-0.492,-0.488l-0.495,-0.487l-0.495,-0.485l-0.497,-0.484l-0.498,-0.482l-0.5,-0.481l-0.502,-0.479l-0.502,-0.478l-0.504,-0.476l-0.506,-0.475l-0.507,-0.474l-0.508,-0.472l-0.51,-0.47l-0.511,-0.469l-0.513,-0.467l-0.513,-0.466l-0.516,-0.464l-0.517,-0.463l-0.518,-0.461l-0.519,-0.46l-0.522,-0.458l-0.522,-0.457l-0.523,-0.455l-0.525,-0.453l-0.527,-0.452l-0.528,-0.451l-0.529,-0.448l-0.53,-0.448l-0.532,-0.445l-0.533,-0.445l-0.535,-0.442l-0.536,-0.441l-0.537,-0.439l-0.539,-0.438l-0.539,-0.436l-0.542,-0.435l-0.542,-0.433l-0.544,-0.432l-0.545,-0.43l-0.547,-0.428l-0.548,-0.427l-0.549,-0.425l-0.55,-0.423l-0.552,-0.422l-0.553,-0.42l-0.554,-0.418l-0.556,-0.417l-0.557,-0.416l-0.558,-0.413l-0.559,-0.412l-0.561,-0.41l-0.562,-0.409l-0.563,-0.407l-0.565,-0.406l-0.566,-0.403l-0.566,-0.402l-0.569,-0.401l-0.569,-0.399l-0.571,-0.397l-0.572,-0.395l-0.573,-0.394l-0.575,-0.392l-0.575,-0.39l-0.577,-0.389l-0.578,-0.386l-0.58,-0.386l-0.58,-0.383l-0.582,-0.382l-0.583,-0.38l-0.584,-0.379l-0.585,-0.376l-0.587,-0.375l-0.587,-0.373l-0.589,-0.372l-0.591,-0.37l-0.591,-0.368l-0.592,-0.366l-0.594,-0.364l-0.595,-0.363l-0.596,-0.361l-0.597,-0.36l-0.598,-0.357l-0.599,-0.356l-0.601,-0.354l-0.602,-0.352l-0.603,-0.351l-0.604,-0.348l-0.605,-0.347l-0.606,-0.346l-0.608,-0.343l-0.608,-0.341l-0.61,-0.34l-0.611,-0.338l-0.612,-0.336l-0.613,-0.335l-0.614,-0.333l-0.615,-0.33l-0.616,-0.329l-0.618,-0.327l-0.619,-0.326l-0.619,-0.323l-0.621,-0.322l-0.621,-0.32l-0.623,-0.318l-0.624,-0.316l-0.625,-0.314l-0.626,-0.313l-0.628,-0.311l-0.628,-0.308l-0.629,-0.307l-0.63,-0.305l-0.632,-0.304l-0.632,-0.301l-0.633,-0.299l-0.635,-0.298l-0.636,-0.296l-0.636,-0.294l-0.638,-0.292l-0.638,-0.29l-0.64,-0.288l-0.641,-0.286l-0.641,-0.285l-0.643,-0.282l-0.644,-0.281l-0.645,-0.279l-0.645,-0.276l-0.647,-0.275l-0.648,-0.273l-0.648,-0.271l-0.65,-0.269l-0.651,-0.268l-0.651,-0.265l-0.653,-0.263l-0.654,-0.262l-0.654,-0.259l-0.656,-0.258l-0.656,-0.255l-0.658,-0.254l-0.658,-0.252l-0.659,-0.249l-0.661,-0.248l-0.661,-0.246l-0.662,-0.244l-0.664,-0.242l-0.664,-0.239l-0.665,-0.238l-0.666,-0.236l-0.666,-0.234l-0.668,-0.232l-0.669,-0.23l-0.67,-0.228l-0.67,-0.226l-0.672,-0.224l-0.672,-0.222l-0.674,-0.22l-0.674,-0.218l-0.675,-0.216l-0.676,-0.214l-0.677,-0.212l-0.677,-0.209l-0.679,-0.208l-0.68,-0.206l-0.68,-0.204l-0.681,-0.201l-0.683,-0.2l-0.683,-0.198l-0.683,-0.195l-0.685,-0.194l-0.686,-0.191l-0.686,-0.19l-0.687,-0.187l-0.689,-0.185l-0.689,-0.183l-0.69,-0.182l-0.69,-0.179l-0.692,-0.177l-0.692,-0.174l-0.693,-0.173l-0.694,-0.171l-0.695,-0.168l-0.696,-0.167l-0.697,-0.164l-0.697,-0.163l-0.698,-0.16l-0.699,-0.158l-0.7,-0.156l-0.7,-0.154l-0.702,-0.151l-0.702,-0.15l-0.703,-0.147l-0.703,-0.146l-0.705,-0.143l-0.705,-0.141l-0.706,-0.139l-0.707,-0.137l-0.708,-0.134l-0.708,-0.133l-0.709,-0.13l-0.71,-0.128l-0.711,-0.126l-0.711,-0.124l-0.713,-0.121l-0.713,-0.12l-0.713,-0.117l-0.715,-0.115l-0.715,-0.113l-0.716,-0.111l-0.717,-0.108l-0.717,-0.106l-0.718,-0.104l-0.719,-0.102l-0.72,-0.1l-0.72,-0.097l-0.721,-0.096l-0.722,-0.093l-0.723,-0.09l-0.723,-0.089l-0.724,-0.086l-0.725,-0.084l-0.725,-0.082l-0.726,-0.08l-0.727,-0.077l-0.727,-0.075l-0.728,-0.073l-0.729,-0.071l-0.73,-0.068l-0.73,-0.066l-0.731,-0.064l-0.731,-0.062l-0.733,-0.059l-0.733,-0.057l-0.733,-0.055l-0.734,-0.052l-0.735,-0.05l-0.736,-0.048l-0.736,-0.046l-0.737,-0.043l-0.738,-0.041l-0.738,-0.039l-0.739,-0.036l-0.739,-0.034l-0.741,-0.032l-0.74,-0.029l-0.742,-0.027l-0.742,-0.025l-0.743,-0.022l-0.743,-0.02l-0.744,-0.018l-0.744,-0.015l-0.746,-0.013l-0.746,-0.011l-0.746,-0.008l-0.747,-0.006l-0.748,-0.004l-0.748,-0.001l-0.748,0.001l-0.748,0.004l-0.747,0.006l-0.746,0.008l-0.746,0.011l-0.746,0.013l-0.744,0.015l-0.744,0.018l-0.743,0.02l-0.743,0.022l-0.742,0.025l-0.742,0.027l-0.74,0.029l-0.741,0.032l-0.739,0.034l-0.739,0.036l-0.738,0.039l-0.738,0.041l-0.737,0.043l-0.736,0.046l-0.736,0.048l-0.735,0.05l-0.734,0.052l-0.733,0.055l-0.733,0.057l-0.733,0.059l-0.731,0.062l-0.731,0.064l-0.73,0.066l-0.73,0.068l-0.729,0.071l-0.728,0.073l-0.727,0.075l-0.727,0.077l-0.726,0.08l-0.725,0.082l-0.725,0.084l-0.724,0.086l-0.723,0.089l-0.723,0.09l-0.722,0.093l-0.721,0.096l-0.72,0.097l-0.72,0.1l-0.719,0.102l-0.718,0.104l-0.717,0.106l-0.717,0.108l-0.716,0.111l-0.715,0.113l-0.715,0.115l-0.713,0.117l-0.713,0.12l-0.713,0.121l-0.711,0.124l-0.711,0.126l-0.71,0.128l-0.709,0.13l-0.708,0.133l-0.708,0.134l-0.707,0.137l-0.706,0.139l-0.705,0.141l-0.705,0.143l-0.703,0.146l-0.703,0.147l-0.702,0.15l-0.702,0.151l-0.7,0.154l-0.7,0.156l-0.699,0.158l-0.698,0.16l-0.697,0.163l-0.697,0.164l-0.696,0.167l-0.694,0.168l-0.695,0.171l-0.693,0.173l-0.692,0.174l-0.692,0.177l-0.69,0.179l-0.69,0.182l-0.689,0.183l-0.688,0.185l-0.688,0.187l-0.686,0.19l-0.686,0.191l-0.685,0.194l-0.684,0.195l-0.683,0.198l-0.682,0.2l-0.681,0.201l-0.68,0.204l-0.68,0.206l-0.679,0.208l-0.677,0.209l-0.677,0.212l-0.676,0.214l-0.675,0.216l-0.674,0.218l-0.674,0.22l-0.672,0.222l-0.672,0.224l-0.67,0.226l-0.67,0.228l-0.669,0.23l-0.667,0.232l-0.667,0.234l-0.666,0.236l-0.665,0.238l-0.665,0.239l-0.663,0.242l-0.662,0.244l-0.661,0.246l-0.661,0.248l-0.659,0.249l-0.658,0.252l-0.658,0.254l-0.656,0.255l-0.656,0.258l-0.654,0.259l-0.654,0.262l-0.653,0.263l-0.651,0.265l-0.651,0.267l-0.65,0.27l-0.648,0.271l-0.648,0.273l-0.647,0.275l-0.646,0.276l-0.644,0.279l-0.644,0.281l-0.643,0.282l-0.641,0.285l-0.641,0.286l-0.64,0.288l-0.638,0.29l-0.638,0.292l-0.636,0.294l-0.636,0.296l-0.634,0.298l-0.634,0.299l-0.632,0.301l-0.632,0.304l-0.63,0.305l-0.629,0.307l-0.629,0.309l-0.627,0.31l-0.626,0.313l-0.625,0.314l-0.624,0.316l-0.623,0.318l-0.621,0.32l-0.621,0.322l-0.62,0.323l-0.618,0.326l-0.618,0.327l-0.616,0.329l-0.615,0.331l-0.614,0.332l-0.613,0.335l-0.612,0.336l-0.611,0.338l-0.61,0.339l-0.608,0.342l-0.608,0.343l-0.606,0.346l-0.605,0.347l-0.604,0.348l-0.603,0.351l-0.602,0.352l-0.6,0.354l-0.6,0.356l-0.598,0.357l-0.597,0.36l-0.596,0.361l-0.595,0.362l-0.594,0.365l-0.592,0.366l-0.591,0.368l-0.591,0.37l-0.588,0.372l-0.588,0.373l-0.587,0.375l-0.585,0.376l-0.584,0.379l-0.583,0.38l-0.582,0.382l-0.581,0.383l-0.579,0.385l-0.578,0.387l-0.577,0.389l-0.576,0.39l-0.574,0.392l-0.573,0.394l-0.572,0.395l-0.571,0.397l-0.569,0.399l-0.569,0.401l-0.567,0.402l-0.565,0.403l-0.565,0.406l-0.563,0.407l-0.562,0.408l-0.561,0.411l-0.559,0.412l-0.558,0.413l-0.557,0.416l-0.556,0.417l-0.554,0.418l-0.553,0.42l-0.552,0.422l-0.55,0.423l-0.549,0.425l-0.548,0.427l-0.547,0.428l-0.545,0.43l-0.544,0.432l-0.542,0.433l-0.541,0.434l-0.54,0.437l-0.539,0.437l-0.537,0.44l-0.536,0.441l-0.535,0.442l-0.533,0.445l-0.532,0.445l-0.53,0.448l-0.529,0.449l-0.528,0.45l-0.527,0.452l-0.525,0.453l-0.523,0.455l-0.523,0.457l-0.521,0.458l-0.519,0.46l-0.518,0.461l-0.517,0.463l-0.515,0.464l-0.514,0.466l-0.513,0.467l-0.511,0.469l-0.51,0.47l-0.508,0.472l-0.507,0.474l-0.506,0.475l-0.504,0.476l-0.503,0.478l-0.501,0.479l-0.5,0.481l-0.498,0.482l-0.497,0.484l-0.495,0.485l-0.494,0.487l-0.493,0.488l-0.491,0.49l-0.49,0.491l-0.488,0.493l-0.487,0.494l-0.485,0.495l-0.484,0.497l-0.482,0.498l-0.481,0.5l-0.479,0.501l-0.478,0.503l-0.476,0.504l-0.475,0.506l-0.474,0.507l-0.472,0.508l-0.47,0.51l-0.469,0.511l-0.467,0.513l-0.466,0.514l-0.464,0.515l-0.463,0.517l-0.461,0.518l-0.46,0.519l-0.458,0.521l-0.457,0.523l-0.455,0.523l-0.453,0.525l-0.452,0.527l-0.45,0.528l-0.449,0.529l-0.448,0.53l-0.445,0.532l-0.445,0.533l-0.442,0.535l-0.441,0.536l-0.44,0.537l-0.437,0.539l-0.437,0.54l-0.434,0.541l-0.433,0.542l-0.432,0.544l-0.43,0.545l-0.428,0.547l-0.427,0.548l-0.425,0.549l-0.423,0.55l-0.422,0.552l-0.42,0.553l-0.418,0.554l-0.417,0.556l-0.416,0.557l-0.413,0.558l-0.412,0.559l-0.411,0.561l-0.408,0.562l-0.407,0.563l-0.406,0.565l-0.403,0.565l-0.402,0.567l-0.401,0.569l-0.399,0.569l-0.397,0.571l-0.395,0.572l-0.394,0.573l-0.392,0.574l-0.39,0.576l-0.389,0.577l-0.387,0.578l-0.385,0.579l-0.383,0.581l-0.382,0.582l-0.38,0.583l-0.379,0.584l-0.376,0.585l-0.375,0.587l-0.373,0.588l-0.372,0.588l-0.37,0.591l-0.368,0.591l-0.366,0.592l-0.365,0.594l-0.362,0.595l-0.361,0.596l-0.36,0.597l-0.357,0.598l-0.356,0.6l-0.354,0.6l-0.352,0.602l-0.351,0.603l-0.348,0.604l-0.347,0.605l-0.346,0.606l-0.343,0.608l-0.342,0.608l-0.339,0.61l-0.338,0.611l-0.336,0.612l-0.335,0.613l-0.332,0.614l-0.331,0.615l-0.329,0.616l-0.327,0.618l-0.326,0.618l-0.323,0.62l-0.322,0.621l-0.32,0.621l-0.318,0.623l-0.316,0.624l-0.314,0.625l-0.313,0.626l-0.31,0.627l-0.309,0.629l-0.307,0.629l-0.305,0.63l-0.304,0.632l-0.301,0.632l-0.299,0.634l-0.298,0.634l-0.296,0.636l-0.294,0.636l-0.292,0.638l-0.29,0.638l-0.288,0.64l-0.286,0.641l-0.285,0.641l-0.282,0.643l-0.281,0.644l-0.279,0.644l-0.276,0.646l-0.275,0.647l-0.273,0.648l-0.271,0.648l-0.27,0.65l-0.267,0.651l-0.265,0.651l-0.263,0.653l-0.262,0.654l-0.259,0.654l-0.258,0.656l-0.255,0.656l-0.254,0.658l-0.252,0.658l-0.249,0.659l-0.248,0.661l-0.246,0.661l-0.244,0.662l-0.242,0.663l-0.239,0.665l-0.238,0.665l-0.236,0.666l-0.234,0.667l-0.232,0.667l-0.23,0.669l-0.228,0.67l-0.226,0.67l-0.224,0.672l-0.222,0.672l-0.22,0.674l-0.218,0.674l-0.216,0.675l-0.214,0.676l-0.212,0.677l-0.209,0.677l-0.208,0.679l-0.206,0.68l-0.204,0.68l-0.201,0.681l-0.2,0.682l-0.198,0.683l-0.195,0.684l-0.194,0.685l-0.191,0.686l-0.19,0.686l-0.187,0.688l-0.185,0.688l-0.183,0.689l-0.182,0.69l-0.179,0.69l-0.177,0.692l-0.174,0.692l-0.173,0.693l-0.171,0.695l-0.168,0.694l-0.167,0.696l-0.164,0.697l-0.163,0.697l-0.16,0.698l-0.158,0.699l-0.156,0.7l-0.154,0.7l-0.151,0.702l-0.15,0.702l-0.147,0.703l-0.146,0.703l-0.143,0.705l-0.141,0.705l-0.139,0.706l-0.137,0.707l-0.134,0.708l-0.133,0.708l-0.13,0.709l-0.128,0.71l-0.126,0.711l-0.124,0.711l-0.121,0.713l-0.12,0.713l-0.117,0.713l-0.115,0.715l-0.113,0.715l-0.111,0.716l-0.108,0.717l-0.106,0.717l-0.104,0.718l-0.102,0.719l-0.1,0.72l-0.097,0.72l-0.096,0.721l-0.093,0.722l-0.09,0.723l-0.089,0.723l-0.086,0.724l-0.084,0.725l-0.082,0.725l-0.08,0.726l-0.077,0.727l-0.075,0.727l-0.073,0.728l-0.071,0.729l-0.068,0.73l-0.066,0.73l-0.064,0.731l-0.062,0.731l-0.059,0.733l-0.057,0.733l-0.055,0.733l-0.052,0.734l-0.05,0.735l-0.048,0.736l-0.046,0.736l-0.043,0.737l-0.041,0.738l-0.039,0.738l-0.036,0.739l-0.034,0.739l-0.032,0.741l-0.029,0.74l-0.027,0.742l-0.025,0.742l-0.022,0.743l-0.02,0.743l-0.018,0.744l-0.015,0.744l-0.013,0.746l-0.011,0.746l-0.008,0.746l-0.006,0.747l-0.004,0.748l-0.001,0.748l0.001,0.748l0.004,0.748l0.006,0.747l0.008,0.746l0.011,0.746l0.013,0.746l0.015,0.744l0.018,0.744l0.02,0.743l0.022,0.743l0.025,0.742l0.027,0.742l0.029,0.74l0.032,0.741l0.034,0.739l0.036,0.739l0.039,0.738l0.041,0.738l0.043,0.737l0.046,0.736l0.048,0.736l0.05,0.735l0.052,0.734l0.055,0.733l0.057,0.733l0.059,0.733l0.062,0.731l0.064,0.731l0.066,0.73l0.068,0.73l0.071,0.729l0.073,0.728l0.075,0.727l0.077,0.727l0.08,0.726l0.082,0.725l0.084,0.725l0.086,0.724l0.089,0.723l0.09,0.723l0.093,0.722l0.096,0.721l0.097,0.72l0.1,0.72l0.102,0.719l0.104,0.718l0.106,0.717l0.108,0.717l0.111,0.716l0.113,0.715l0.115,0.715l0.117,0.713l0.12,0.713l0.121,0.713l0.124,0.711l0.126,0.711l0.128,0.71l0.13,0.709l0.133,0.708l0.134,0.708l0.137,0.707l0.139,0.706l0.141,0.705l0.143,0.705l0.146,0.703l0.147,0.703l0.15,0.702l0.151,0.702l0.154,0.7l0.156,0.7l0.158,0.699l0.16,0.698l0.163,0.697l0.164,0.697l0.167,0.696l0.168,0.695l0.171,0.694l0.173,0.693l0.174,0.692l0.177,0.692l0.179,0.69l0.182,0.69l0.183,0.689l0.185,0.689l0.187,0.687l0.19,0.686l0.191,0.686l0.194,0.685l0.195,0.683l0.198,0.683l0.2,0.683l0.201,0.681l0.204,0.68l0.206,0.68l0.208,0.679l0.209,0.677l0.212,0.677l0.214,0.676l0.216,0.675l0.218,0.674l0.22,0.674l0.222,0.672l0.224,0.672l0.226,0.67l0.228,0.67l0.23,0.669l0.232,0.668l0.234,0.666l0.236,0.666l0.238,0.665l0.239,0.664l0.242,0.664l0.244,0.662l0.246,0.661l0.248,0.661l0.249,0.659l0.252,0.658l0.254,0.658l0.255,0.656l0.258,0.656l0.259,0.654l0.262,0.654l0.263,0.653l0.265,0.651l0.268,0.651l0.269,0.65l0.271,0.648l0.273,0.648l0.275,0.647l0.276,0.645l0.279,0.645l0.281,0.644l0.282,0.643l0.285,0.641l0.286,0.641l0.288,0.64l0.29,0.638l0.292,0.638l0.294,0.636l0.296,0.636l0.298,0.635l0.299,0.633l0.301,0.632l0.304,0.632l0.305,0.63l0.307,0.629l0.308,0.628l0.311,0.628l0.313,0.626l0.314,0.625l0.316,0.624l0.318,0.623l0.32,0.621l0.322,0.621l0.323,0.619l0.326,0.619l0.327,0.618l0.329,0.616l0.33,0.615l0.333,0.614l0.335,0.613l0.336,0.612l0.338,0.611l0.34,0.61l0.341,0.608l0.343,0.608l0.346,0.606l0.347,0.605l0.348,0.604l0.351,0.603l0.352,0.602l0.354,0.601l0.356,0.599l0.357,0.598l0.36,0.597l0.361,0.596l0.363,0.595l0.364,0.594l0.366,0.592l0.368,0.591l0.37,0.591l0.372,0.589l0.373,0.587l0.375,0.587l0.376,0.585l0.379,0.584l0.38,0.583l0.382,0.582l0.383,0.58l0.386,0.58l0.386,0.578l0.389,0.577l0.39,0.575l0.392,0.575l0.394,0.573l0.395,0.572l0.397,0.571l0.399,0.569l0.401,0.569l0.402,0.566l0.403,0.566l0.406,0.565l0.407,0.563l0.409,0.562l0.41,0.561l0.412,0.559l0.413,0.558l0.416,0.557l0.417,0.556l0.418,0.554l0.42,0.553l0.422,0.552l0.423,0.55l0.425,0.549l0.427,0.548l0.428,0.547l0.43,0.545l0.432,0.544l0.433,0.542l0.435,0.542l0.436,0.539l0.438,0.539l0.439,0.537l0.441,0.536l0.442,0.535l0.445,0.533l0.445,0.532l0.448,0.53l0.448,0.529l0.451,0.528l0.452,0.527l0.453,0.525l0.455,0.523l0.457,0.522l0.458,0.522l0.46,0.519l0.461,0.518l0.463,0.517l0.464,0.516l0.466,0.513l0.467,0.513l0.469,0.511l0.47,0.51l0.472,0.508l0.474,0.507l0.475,0.506l0.476,0.504l0.478,0.502l0.479,0.502l0.481,0.5l0.482,0.498l0.484,0.497l0.485,0.495l0.487,0.495l0.488,0.492l0.49,0.491l0.491,0.49l0.493,0.488l0.494,0.487l0.495,0.485l0.497,0.484l0.498,0.482l0.5,0.481l0.501,0.479l0.503,0.478l0.504,0.476l0.505,0.475l0.508,0.474l0.508,0.472l0.51,0.47l0.511,0.469l0.513,0.467l0.513,0.466l0.516,0.464l0.517,0.463l0.518,0.461l0.519,0.46l0.521,0.458l0.523,0.456l0.523,0.456l0.526,0.453l0.526,0.452l0.527,0.45l0.53,0.449l0.53,0.448l0.532,0.445l0.533,0.445l0.535,0.442l0.536,0.441l0.537,0.44l0.539,0.437l0.54,0.437l0.541,0.434l0.542,0.433l0.544,0.432l0.545,0.43l0.547,0.428l0.547,0.426l0.55,0.425l0.55,0.424l0.552,0.422l0.553,0.42l0.554,0.418l0.556,0.417l0.557,0.416l0.558,0.413l0.559,0.412l0.561,0.411l0.562,0.408l0.563,0.407l0.564,0.406l0.566,0.403l0.568,0.403l0.567,0.4l0.57,0.398l0.571,0.398l0.572,0.395l0.573,0.393l0.575,0.393l0.575,0.39l0.577,0.388l0.578,0.388l0.58,0.385l0.58,0.383l0.582,0.382l0.583,0.38l0.584,0.379l0.585,0.376l0.587,0.375l0.588,0.373l0.588,0.372l0.59,0.369l0.592,0.369l0.593,0.366l0.593,0.365l0.595,0.362l0.595,0.361l0.598,0.36l0.598,0.357l0.6,0.356l0.6,0.354l0.602,0.352l0.603,0.351l0.604,0.348l0.605,0.347l0.606,0.345l0.608,0.344l0.609,0.342l0.609,0.339l0.611,0.338l0.612,0.336l0.613,0.335l0.614,0.332l0.615,0.331l0.616,0.329l0.618,0.327l0.619,0.326l0.619,0.323l0.621,0.322l0.621,0.32l0.623,0.318l0.624,0.316l0.625,0.314l0.626,0.313l0.628,0.31l0.627,0.309l0.63,0.307l0.631,0.305l0.631,0.304l0.632,0.301l0.633,0.299l0.635,0.298l0.636,0.296l0.636,0.294l0.638,0.292l0.638,0.29l0.64,0.288l0.64,0.286l0.642,0.285l0.643,0.282l0.644,0.281l0.645,0.279l0.645,0.276l0.647,0.275l0.648,0.273l0.649,0.271l0.649,0.27l0.651,0.267l0.651,0.265l0.653,0.263l0.654,0.262l0.654,0.259l0.655,0.258l0.657,0.255l0.658,0.254l0.658,0.252l0.659,0.249l0.661,0.248l0.661,0.246l0.662,0.244l0.663,0.242l0.665,0.239l0.664,0.238l0.667,0.236l0.667,0.234l0.667,0.232l0.669,0.23l0.67,0.228l0.67,0.226l0.672,0.224l0.672,0.222l0.674,0.22l0.674,0.218l0.675,0.216l0.676,0.214l0.676,0.211l0.678,0.21l0.679,0.208l0.679,0.206l0.681,0.204l0.681,0.201l0.682,0.2l0.683,0.198l0.684,0.195l0.685,0.194l0.686,0.191l0.686,0.19l0.687,0.187l0.689,0.185l0.689,0.183l0.69,0.182l0.69,0.179l0.692,0.176l0.692,0.175l0.694,0.173l0.693,0.171l0.695,0.168l0.696,0.167l0.697,0.164l0.697,0.163l0.698,0.16l0.699,0.158l0.7,0.156l0.7,0.154l0.701,0.151l0.703,0.15l0.703,0.147l0.703,0.146l0.705,0.143l0.705,0.141l0.706,0.139l0.707,0.136l0.708,0.135l0.708,0.133l0.709,0.13l0.71,0.128l0.711,0.126l0.711,0.124l0.713,0.121l0.713,0.12l0.713,0.117l0.715,0.115l0.715,0.113l0.716,0.11l0.717,0.109l0.717,0.106l0.719,0.104l0.718,0.102l0.72,0.1l0.72,0.097l0.721,0.096l0.722,0.093l0.723,0.09l0.723,0.089l0.724,0.086l0.725,0.084l0.725,0.082l0.726,0.08l0.727,0.077l0.727,0.075l0.728,0.073l0.729,0.071l0.73,0.068l0.73,0.066l0.731,0.064l0.731,0.062l0.733,0.059l0.733,0.057l0.733,0.055l0.735,0.052l0.735,0.05l0.735,0.048l0.736,0.046l0.737,0.043l0.738,0.041l0.738,0.039l0.739,0.036l0.74,0.034l0.74,0.032l0.74,0.029l0.742,0.027l0.742,0.025l0.743,0.022l0.743,0.02l0.744,0.018l0.744,0.015l0.746,0.013l0.745,0.011l0.747,0.008l0.747,0.006l0.748,0.004l0.748,0.001Z" style="fill:#461d7c;"/><path d="M392.226,256l-232.452,116.226l0,-232.452l232.452,116.226Z" style="fill:#461d7c;stroke-width:10px;stroke:#461d7c;"/><defs><radialGradient id="_Radial1" cx="0" cy="0" r="1" gradientUnits="userSpaceOnUse" gradientTransform="matrix(256,0,0,256,256,256)"><stop offset="0%" style="stop-color:#fff;stop-opacity:1"/><stop offset="100%" style="stop-color:#fdd023;stop-opacity:1"/></radialGradient><radialGradient id="_Radial2" cx="0" cy="0" r="1" gradientUnits="userSpaceOnUse" gradientTransform="matrix(253.579,0,0,238.219,256.421,246.463)"><stop offset="0%" style="stop-color:#7549b1;stop-opacity:1"/><stop offset="100%" style="stop-color:#fdd023;stop-opacity:1"/><stop offset="100%" style="stop-color:#fdd023;stop-opacity:1"/></radialGradient></defs></svg>
